<svg width="452" height="450" viewBox="0 0 452 450" fill="none" xmlns="http://www.w3.org/2000/svg">
<path d="M441.414 381.64C439.776 366.886 431.616 352.349 419.059 347.548C424.011 362.733 424.01 379.393 419.056 394.578C417.126 400.426 414.436 406.706 416.251 412.6C417.381 416.268 420.143 419.074 423.232 420.829C426.32 422.583 429.747 423.419 433.132 424.239L433.798 424.856C439.171 411.262 443.051 396.393 441.414 381.64Z" fill="#F0F0F0"/>
<path d="M418.934 347.827C426.247 357.008 430.792 368.538 431.924 380.778C432.209 383.408 432.123 386.073 431.668 388.673C431.152 391.189 430.043 393.505 428.458 395.38C427.011 397.161 425.347 398.795 424.312 400.939C423.797 402.046 423.496 403.262 423.43 404.507C423.363 405.753 423.532 407 423.926 408.168C424.84 411.105 426.642 413.499 428.476 415.772C430.512 418.295 432.663 420.88 433.529 424.225C433.634 424.63 434.189 424.424 434.084 424.019C432.578 418.199 427.536 414.893 425.131 409.651C424.009 407.205 423.538 404.365 424.59 401.783C425.51 399.526 427.224 397.839 428.703 396.05C430.274 394.246 431.426 392.04 432.06 389.622C432.631 387.057 432.809 384.4 432.586 381.768C432.167 375.832 430.917 370.007 428.883 364.506C426.593 358.213 423.359 352.406 419.321 347.335C419.071 347.021 418.686 347.515 418.934 347.827V347.827Z" fill="white"/>
<path d="M431.766 376.813C433.574 376.321 435.166 375.126 436.259 373.44C437.352 371.755 437.875 369.688 437.734 367.611C437.704 367.19 437.12 367.223 437.15 367.643C437.284 369.578 436.797 371.502 435.776 373.07C434.755 374.637 433.268 375.744 431.583 376.19C431.217 376.288 431.402 376.91 431.766 376.813V376.813Z" fill="white"/>
<path d="M429.298 394.585C426.034 392.402 423.625 388.92 422.55 384.834C422.444 384.429 421.889 384.635 421.995 385.04C423.12 389.289 425.634 392.907 429.035 395.17C429.359 395.386 429.62 394.8 429.298 394.585V394.585Z" fill="white"/>
<path d="M426.05 358.834C425.387 359.187 424.655 359.351 423.921 359.309C423.187 359.267 422.474 359.022 421.845 358.595C421.523 358.375 421.263 358.961 421.582 359.18C422.278 359.648 423.066 359.918 423.877 359.966C424.688 360.014 425.497 359.839 426.234 359.456C426.306 359.427 426.365 359.367 426.4 359.29C426.434 359.214 426.442 359.125 426.42 359.042C426.395 358.96 426.343 358.892 426.273 358.853C426.204 358.814 426.124 358.807 426.05 358.834V358.834Z" fill="white"/>
<path d="M380.782 373.9C380.979 374.044 381.177 374.187 381.374 374.337C384.019 376.285 386.518 378.471 388.846 380.873C389.029 381.056 389.212 381.244 389.389 381.432C394.945 387.286 399.482 394.245 402.77 401.955C404.075 405.024 405.171 408.201 406.047 411.456C407.256 415.952 408.248 420.935 410.642 424.613C410.888 425 411.155 425.369 411.441 425.719H433.074C433.123 425.691 433.173 425.669 433.222 425.641L434.086 425.686C434.051 425.514 434.012 425.337 433.977 425.166C433.957 425.066 433.933 424.967 433.913 424.867C433.898 424.801 433.883 424.734 433.873 424.674C433.869 424.651 433.864 424.629 433.859 424.613C433.849 424.552 433.834 424.497 433.824 424.441C433.607 423.451 433.383 422.461 433.153 421.471C433.153 421.466 433.153 421.466 433.148 421.46C431.376 413.923 429.027 406.484 425.745 399.682C425.646 399.477 425.547 399.267 425.439 399.063C423.944 396.006 422.229 393.091 420.311 390.347C419.256 388.848 418.134 387.41 416.949 386.039C413.883 382.501 410.338 379.527 406.447 377.223C398.688 372.633 389.705 370.875 381.413 373.679C381.201 373.75 380.994 373.822 380.782 373.9Z" fill="#F0F0F0"/>
<path d="M380.83 374.207C391.603 376.605 401.427 382.744 408.908 391.754C410.549 393.662 411.911 395.847 412.945 398.23C413.885 400.588 414.245 403.185 413.986 405.751C413.788 408.149 413.338 410.576 413.663 412.987C413.846 414.218 414.259 415.391 414.876 416.431C415.492 417.47 416.297 418.352 417.239 419.019C419.547 420.747 422.271 421.444 424.957 422.021C427.939 422.662 431.045 423.274 433.534 425.361C433.835 425.614 434.168 425.075 433.867 424.823C429.537 421.192 423.735 421.954 418.998 419.39C416.788 418.194 414.886 416.245 414.338 413.473C413.86 411.05 414.322 408.546 414.542 406.12C414.827 403.621 414.561 401.082 413.768 398.724C412.846 396.29 411.561 394.049 409.968 392.098C406.444 387.641 402.316 383.833 397.736 380.813C392.527 377.334 386.824 374.879 380.875 373.554C380.507 373.472 380.465 374.126 380.83 374.207V374.207Z" fill="white"/>
<path d="M406.651 388.694C407.83 387.082 408.459 385.054 408.426 382.971C408.393 380.887 407.7 378.885 406.472 377.321C406.222 377.006 405.773 377.426 406.023 377.741C407.169 379.195 407.814 381.061 407.842 383.001C407.869 384.941 407.276 386.828 406.17 388.321C405.931 388.646 406.413 389.017 406.651 388.694H406.651Z" fill="white"/>
<path d="M414.23 404.55C410.45 405.008 406.656 403.854 403.603 401.316C403.3 401.065 402.968 401.604 403.27 401.855C406.451 404.489 410.402 405.681 414.334 405.195C414.709 405.148 414.602 404.503 414.23 404.55V404.55Z" fill="white"/>
<path d="M392.427 378.195C392.087 378.925 391.59 379.549 390.982 380.011C390.373 380.473 389.672 380.758 388.941 380.841C388.566 380.883 388.673 381.527 389.045 381.486C389.853 381.39 390.627 381.074 391.3 380.565C391.974 380.057 392.525 379.371 392.908 378.568C392.949 378.496 392.965 378.409 392.951 378.324C392.938 378.239 392.896 378.164 392.834 378.112C392.77 378.063 392.691 378.045 392.615 378.06C392.539 378.076 392.471 378.124 392.427 378.195Z" fill="white"/>
<path d="M226.935 118.645H224.962V58.0633C224.962 53.4587 224.152 48.8992 222.58 44.6451C221.007 40.3911 218.702 36.5257 215.797 33.2698C212.891 30.0139 209.441 27.4311 205.645 25.669C201.848 23.9069 197.779 23 193.67 23H79.1222C70.823 23 62.8637 26.6941 56.9952 33.2697C51.1268 39.8453 47.8299 48.7638 47.8299 58.0631V390.421C47.8299 399.72 51.1267 408.639 56.9952 415.214C62.8636 421.79 70.8229 425.484 79.1221 425.484H193.669C201.969 425.484 209.928 421.79 215.796 415.215C221.665 408.639 224.962 399.721 224.962 390.421V161.769H226.935L226.935 118.645Z" fill="#C1C0C5"/>
<path d="M194.932 32.1222H179.98C180.668 34.0112 180.93 36.0607 180.744 38.0901C180.558 40.1195 179.93 42.0665 178.915 43.7597C177.899 45.4529 176.527 46.8403 174.921 47.7996C173.314 48.759 171.521 49.2608 169.701 49.261H104.078C102.257 49.2608 100.465 48.759 98.8578 47.7996C97.251 46.8403 95.8794 45.4529 94.8639 43.7597C93.8484 42.0665 93.22 40.1194 93.0343 38.09C92.8485 36.0606 93.111 34.0112 93.7986 32.1222H79.8332C76.7644 32.1222 73.7256 32.7995 70.8903 34.1154C68.0551 35.4313 65.479 37.3601 63.309 39.7916C61.139 42.223 59.4177 45.1096 58.2433 48.2865C57.0689 51.4634 56.4645 54.8684 56.4644 58.307V390.177C56.4644 393.616 57.0689 397.021 58.2433 400.198C59.4176 403.375 61.139 406.261 63.309 408.693C65.4789 411.124 68.0551 413.053 70.8903 414.369C73.7255 415.685 76.7643 416.362 79.8331 416.362H194.932C198.001 416.362 201.04 415.685 203.875 414.369C206.71 413.053 209.286 411.124 211.456 408.693C213.626 406.261 215.348 403.375 216.522 400.198C217.696 397.021 218.301 393.616 218.301 390.177V390.177V58.307C218.301 54.8684 217.696 51.4634 216.522 48.2865C215.348 45.1097 213.626 42.2231 211.456 39.7916C209.286 37.3601 206.71 35.4313 203.875 34.1154C201.04 32.7995 198.001 32.1222 194.932 32.1222V32.1222Z" fill="white"/>
<path d="M153.385 121.276H112.588V125.521H153.385V121.276Z" fill="#C1C0C5"/>
<path d="M183.694 135.961H112.588V140.207H183.694V135.961Z" fill="#E6E6E6"/>
<path d="M183.624 150.647H112.588V154.892H183.624V150.647Z" fill="#E6E6E6"/>
<path d="M104.133 121.339H73.8241V155.3H104.133V121.339Z" fill="#C1C0C5"/>
<path d="M153.385 210.424H112.588V214.67H153.385V210.424Z" fill="#C1C0C5"/>
<path d="M183.694 225.11H112.588V229.355H183.694V225.11Z" fill="#E6E6E6"/>
<path d="M183.624 239.795H112.588V244.04H183.624V239.795Z" fill="#E6E6E6"/>
<path d="M104.133 210.488H73.8241V244.449H104.133V210.488Z" fill="#C1C0C5"/>
<path d="M153.385 299.573H112.588V303.818H153.385V299.573Z" fill="#C1C0C5"/>
<path d="M183.694 314.258H112.588V318.503H183.694V314.258Z" fill="#E6E6E6"/>
<path d="M183.624 328.944H112.588V333.189H183.624V328.944Z" fill="#E6E6E6"/>
<path d="M104.133 299.636H73.8241V333.597H104.133V299.636Z" fill="#C1C0C5"/>
<path d="M358.089 418.918L352.047 419.291L347.889 393.356L356.806 392.806L358.089 418.918Z" fill="#FFB6B6"/>
<path d="M359.952 425.385L340.471 426.587L340.458 426.311C340.347 424.058 341.04 421.847 342.383 420.166C343.727 418.485 345.612 417.471 347.622 417.347L347.623 417.347L359.521 416.613L359.952 425.385Z" fill="#2F2E41"/>
<path d="M231.42 314.611L230.638 307.888L253.41 301.309L254.564 311.231L231.42 314.611Z" fill="#FFB6B6"/>
<path d="M225.804 317.175L223.283 295.496L223.527 295.461C225.524 295.169 227.543 295.778 229.139 297.154C230.736 298.53 231.779 300.561 232.039 302.798L232.039 302.799L233.579 316.04L225.804 317.175Z" fill="#2F2E41"/>
<path d="M307.799 272.12C308.063 272.199 308.321 272.301 308.571 272.425L329.277 257.8L329.056 251.142L337.98 249.454L339.394 261.199C339.508 262.148 339.345 263.113 338.928 263.948C338.511 264.784 337.864 265.446 337.083 265.834L311.631 278.493C311.494 279.662 311.042 280.757 310.337 281.631C309.631 282.505 308.705 283.118 307.68 283.388C306.656 283.658 305.583 283.573 304.604 283.143C303.624 282.712 302.785 281.958 302.197 280.981C301.609 280.003 301.301 278.848 301.313 277.669C301.326 276.49 301.658 275.343 302.266 274.382C302.875 273.42 303.73 272.688 304.718 272.284C305.707 271.88 306.781 271.823 307.799 272.12Z" fill="#FFB6B6"/>
<path d="M328.331 256.873C328.085 256.646 327.884 256.363 327.744 256.041C327.604 255.72 327.527 255.368 327.52 255.011L327.244 242.524C326.964 240.722 327.334 238.869 328.272 237.371C329.21 235.874 330.639 234.854 332.247 234.536C333.855 234.217 335.51 234.626 336.849 235.672C338.188 236.719 339.103 238.317 339.392 240.118L342.9 252.016C343 252.356 343.034 252.715 342.999 253.071C342.964 253.426 342.861 253.769 342.697 254.076C342.533 254.383 342.311 254.646 342.048 254.849C341.785 255.051 341.486 255.187 341.172 255.249L330.12 257.401C329.806 257.462 329.483 257.447 329.174 257.356C328.866 257.264 328.578 257.1 328.331 256.873V256.873Z" fill="#E4E4E4"/>
<path d="M345.547 222.364C353.847 222.364 360.576 214.824 360.576 205.524C360.576 196.224 353.847 188.684 345.547 188.684C337.247 188.684 330.519 196.224 330.519 205.524C330.519 214.824 337.247 222.364 345.547 222.364Z" fill="#2F2E41"/>
<path d="M350.805 194.769C354.239 194.769 357.023 191.649 357.023 187.801C357.023 183.952 354.239 180.832 350.805 180.832C347.37 180.832 344.586 183.952 344.586 187.801C344.586 191.649 347.37 194.769 350.805 194.769Z" fill="#2F2E41"/>
<path d="M359.096 184.026C359.096 182.304 358.527 180.642 357.498 179.363C356.469 178.083 355.054 177.275 353.525 177.096C353.74 177.071 353.957 177.058 354.173 177.058C355.822 177.058 357.404 177.792 358.57 179.099C359.737 180.406 360.392 182.178 360.392 184.026C360.392 185.874 359.737 187.647 358.57 188.953C357.404 190.26 355.822 190.994 354.173 190.994C353.957 190.994 353.74 190.982 353.525 190.957C355.054 190.777 356.469 189.969 357.498 188.69C358.527 187.41 359.096 185.749 359.096 184.026V184.026Z" fill="#2F2E41"/>
<path d="M345.541 223.834C350.789 223.834 355.044 219.066 355.044 213.185C355.044 207.305 350.789 202.537 345.541 202.537C340.293 202.537 336.038 207.305 336.038 213.185C336.038 219.066 340.293 223.834 345.541 223.834Z" fill="#FFB8B8"/>
<path d="M361.359 286.662C361.359 286.662 360.907 299.338 359.096 305.93C357.286 312.521 360.454 405.819 358.87 408.1C357.286 410.382 349.82 409.622 349.82 409.622L342.894 361.014C342.894 361.014 341.675 309.479 324.931 308.211C308.188 306.944 242.799 314.043 242.799 314.043L241.442 303.648L276.512 295.028C276.512 295.028 308.641 282.605 326.289 285.901C343.937 289.197 361.359 286.662 361.359 286.662Z" fill="#2F2E41"/>
<path d="M359.323 225.309C361.133 223.788 365.658 225.816 365.658 225.816L370.636 242.295C370.636 242.295 368.147 256.492 365.884 264.352C363.622 272.211 359.263 306.955 360.168 308.476C361.073 309.997 345.521 297.563 336.244 293.761C326.968 289.958 324.931 285.648 324.931 285.648C324.931 285.648 335.113 269.422 331.719 261.816C328.325 254.211 331.04 245.591 331.04 245.591L329.683 236.971L337.376 232.154C337.376 232.154 357.513 226.83 359.323 225.309Z" fill="#E4E4E4"/>
<path d="M343.799 208.922C349.523 208.922 354.164 205.802 354.164 201.954C354.164 198.105 349.523 194.986 343.799 194.986C338.075 194.986 333.435 198.105 333.435 201.954C333.435 205.802 338.075 208.922 343.799 208.922Z" fill="#2F2E41"/>
<path d="M403.358 229.743C403.246 230.022 403.153 230.31 403.081 230.605L379.862 239.286L375.406 234.874L368.585 241.54L375.797 250.209C376.38 250.909 377.149 251.379 377.99 251.547C378.832 251.716 379.699 251.574 380.462 251.143L405.331 237.103C406.224 237.725 407.266 238.027 408.317 237.97C409.368 237.912 410.378 237.498 411.213 236.781C412.049 236.064 412.67 235.08 412.993 233.958C413.317 232.836 413.329 231.631 413.026 230.502C412.723 229.373 412.121 228.374 411.3 227.638C410.478 226.901 409.476 226.463 408.426 226.38C407.377 226.298 406.33 226.576 405.424 227.176C404.519 227.777 403.798 228.672 403.358 229.743V229.743Z" fill="#FFB6B6"/>
<path d="M379.052 239.763L370.563 247.979C370.321 248.213 370.037 248.385 369.731 248.485C369.424 248.585 369.102 248.61 368.787 248.557C368.471 248.505 368.169 248.377 367.901 248.183C367.634 247.988 367.406 247.731 367.235 247.429L361.245 236.847C360.184 235.456 359.659 233.65 359.785 231.825C359.911 230.001 360.678 228.307 361.917 227.115C363.156 225.923 364.766 225.33 366.395 225.466C368.023 225.603 369.537 226.457 370.604 227.843L379.05 235.995C379.292 236.228 379.486 236.517 379.619 236.842C379.752 237.167 379.821 237.521 379.821 237.878C379.821 238.236 379.753 238.589 379.62 238.915C379.487 239.24 379.293 239.529 379.052 239.763L379.052 239.763Z" fill="#E4E4E4"/>
<path d="M446.412 427H0.587677C0.432113 426.999 0.283077 426.93 0.173236 426.806C0.0633946 426.683 0.00170898 426.516 0.00170898 426.342C0.00170898 426.167 0.0633946 426 0.173236 425.877C0.283077 425.753 0.432113 425.684 0.587677 425.683H446.412C446.568 425.683 446.718 425.752 446.828 425.876C446.938 425.999 447 426.167 447 426.342C447 426.516 446.938 426.684 446.828 426.807C446.718 426.931 446.568 427 446.412 427V427Z" fill="#3F3D56"/>
</svg>
