<svg width="452" height="450" viewBox="0 0 452 450" fill="none" xmlns="http://www.w3.org/2000/svg">
<g clip-path="url(#clip0_0_1)">
<path opacity="0.1" d="M229.41 380.62C334.297 380.62 419.324 373.005 419.324 363.612C419.324 354.219 334.297 346.604 229.41 346.604C124.524 346.604 39.4963 354.219 39.4963 363.612C39.4963 373.005 124.524 380.62 229.41 380.62Z" fill="#C1C0C5"/>
<g opacity="0.1">
<path opacity="0.1" d="M397.616 266.698C396.481 262.724 391.878 260.895 387.338 262.616C386.684 262.862 386.051 263.178 385.448 263.559C385.158 263.466 384.858 263.384 384.554 263.322C384.802 262.179 384.897 260.999 384.836 259.823C386.402 258.614 387.672 256.962 388.525 255.024C389.378 253.086 389.785 250.928 389.707 248.757C391.268 247.545 392.535 245.892 393.384 243.954C394.234 242.017 394.638 239.861 394.559 237.692C396.133 236.495 397.403 234.837 398.237 232.888C400.427 227.889 399.52 222.271 396.208 220.338C392.897 218.406 388.433 220.895 386.243 225.894C385.375 227.824 384.97 229.985 385.068 232.156C383.506 233.368 382.24 235.022 381.391 236.959C380.541 238.896 380.136 241.053 380.215 243.222C378.654 244.434 377.387 246.087 376.538 248.024C375.688 249.962 375.283 252.118 375.362 254.287C373.797 255.497 372.527 257.151 371.674 259.089C370.821 261.028 370.414 263.186 370.492 265.358C368.918 266.554 367.649 268.212 366.814 270.161C366.403 271.101 366.09 272.094 365.885 273.12C365.336 272.194 364.667 271.372 363.901 270.682C363.813 269.895 363.663 269.118 363.454 268.363C361.961 263.121 357.957 259.926 354.517 261.235C351.076 262.544 349.485 267.847 350.978 273.089C351.588 275.336 352.764 277.324 354.356 278.799C354.443 279.586 354.593 280.363 354.803 281.118C355.67 284.159 357.381 286.509 359.338 287.69C359.165 288.346 359.041 289.019 358.967 289.7C357.122 291.747 355.934 294.456 355.598 297.384C353.751 299.432 352.563 302.144 352.229 305.074C351.314 306.087 350.558 307.274 349.994 308.584C347.8 313.583 348.708 319.206 352.019 321.133C355.33 323.061 359.794 320.582 361.988 315.578C362.566 314.273 362.944 312.862 363.105 311.408C364.951 309.361 366.139 306.651 366.475 303.724C368.321 301.675 369.51 298.964 369.844 296.034C371.677 293.982 372.851 291.272 373.173 288.349C375.027 286.302 376.219 283.585 376.551 280.649C377.12 280.028 377.628 279.337 378.066 278.588C379.892 279.02 381.784 278.883 383.549 278.191C384.203 277.945 384.836 277.629 385.439 277.248C387.415 277.849 389.502 277.763 391.436 277C395.963 275.295 398.746 270.677 397.616 266.698Z" fill="#3F3D56"/>
<g opacity="0.1">
<path opacity="0.1" d="M389.604 251.03C389.135 251.562 388.62 252.037 388.067 252.447C388.137 253.918 387.969 255.392 387.571 256.792C387.922 256.231 388.236 255.64 388.509 255.024C389.063 253.772 389.433 252.422 389.604 251.03Z" fill="black"/>
<path opacity="0.1" d="M394.457 239.964C393.988 240.496 393.473 240.971 392.919 241.382C392.99 242.853 392.822 244.326 392.423 245.727C392.776 245.165 393.09 244.572 393.362 243.954C393.914 242.702 394.284 241.354 394.457 239.964Z" fill="black"/>
<path opacity="0.1" d="M383.451 235.847C383.41 235.088 383.435 234.326 383.527 233.574C382.659 234.56 381.937 235.704 381.391 236.96C381.121 237.579 380.894 238.222 380.711 238.882C381.451 237.681 382.38 236.651 383.451 235.847V235.847Z" fill="black"/>
<path opacity="0.1" d="M352.649 302.811C353.039 302.184 353.481 301.6 353.967 301.069C354.043 300.37 354.173 299.68 354.356 299.008C353.967 299.61 353.625 300.249 353.332 300.92C353.062 301.529 352.834 302.161 352.649 302.811V302.811Z" fill="black"/>
<path opacity="0.1" d="M356.018 295.132C356.409 294.504 356.85 293.921 357.336 293.39C357.409 292.709 357.533 292.036 357.707 291.38V291.38C357.336 291.965 357.007 292.583 356.724 293.23C356.448 293.843 356.212 294.479 356.018 295.132V295.132Z" fill="black"/>
<path opacity="0.1" d="M384.747 262.095C384.28 262.627 383.766 263.1 383.214 263.508C383.275 264.684 383.18 265.864 382.932 267.007C383.234 267.067 383.532 267.146 383.826 267.244C384.429 266.863 385.062 266.547 385.716 266.301C390.265 264.58 394.863 266.409 395.994 270.383C396.275 271.382 396.324 272.448 396.137 273.475C397.634 271.445 398.255 268.971 397.612 266.703C396.476 262.729 391.874 260.9 387.334 262.621C386.68 262.867 386.047 263.183 385.444 263.564C385.153 263.471 384.854 263.389 384.55 263.327C384.635 262.915 384.697 262.508 384.747 262.095Z" fill="black"/>
<path opacity="0.1" d="M350.986 306.672C350.598 307.274 350.256 307.913 349.963 308.584C349.692 309.205 349.462 309.85 349.275 310.511C349.674 309.881 350.123 309.294 350.616 308.759C350.684 308.052 350.809 307.353 350.986 306.672V306.672Z" fill="black"/>
<path opacity="0.1" d="M378.575 246.912C378.535 246.153 378.56 245.392 378.651 244.639C377.784 245.625 377.062 246.769 376.515 248.025C376.246 248.644 376.019 249.287 375.836 249.948C376.576 248.746 377.505 247.716 378.575 246.912V246.912Z" fill="black"/>
<path opacity="0.1" d="M371.564 292.04C371.476 292.806 371.326 293.562 371.117 294.297C371.467 293.734 371.779 293.141 372.051 292.524C372.344 291.862 372.588 291.172 372.78 290.462C372.414 291.027 372.007 291.554 371.564 292.04V292.04Z" fill="black"/>
<path opacity="0.1" d="M364.826 307.409C364.738 308.175 364.588 308.931 364.379 309.666C364.731 309.104 365.045 308.512 365.317 307.893C365.608 307.23 365.852 306.54 366.046 305.832C365.679 306.397 365.271 306.925 364.826 307.409V307.409Z" fill="black"/>
<path opacity="0.1" d="M368.195 299.719C368.107 300.486 367.958 301.242 367.748 301.976C368.104 301.424 368.424 300.842 368.704 300.234C368.997 299.572 369.241 298.882 369.433 298.173C369.059 298.727 368.645 299.245 368.195 299.719V299.719Z" fill="black"/>
<path opacity="0.1" d="M374.934 284.355C374.846 285.12 374.696 285.874 374.487 286.607C374.837 286.047 375.149 285.456 375.421 284.84C375.717 284.166 375.962 283.464 376.153 282.742C375.789 283.321 375.381 283.861 374.934 284.355V284.355Z" fill="black"/>
<path opacity="0.1" d="M352.872 264.92C356.322 263.616 360.326 266.806 361.809 272.048C362.019 272.805 362.168 273.583 362.256 274.372C363.022 275.062 363.691 275.885 364.24 276.81C364.446 275.783 364.758 274.788 365.17 273.846C365.326 273.496 365.496 273.161 365.67 272.816C365.163 272.006 364.562 271.281 363.883 270.661C363.795 269.874 363.646 269.098 363.436 268.342C361.943 263.1 357.94 259.905 354.499 261.214C352.533 261.956 351.174 264.002 350.647 266.59C351.252 265.821 352.018 265.246 352.872 264.92V264.92Z" fill="black"/>
<path opacity="0.1" d="M368.87 269.043C368.83 268.286 368.857 267.526 368.95 266.775C368.08 267.76 367.356 268.904 366.81 270.161C366.539 270.778 366.312 271.42 366.13 272.079C366.872 270.879 367.801 269.85 368.87 269.043V269.043Z" fill="black"/>
<path opacity="0.1" d="M373.723 257.972C373.683 257.215 373.71 256.455 373.803 255.705C372.931 256.686 372.208 257.829 371.663 259.085C371.393 259.705 371.166 260.348 370.983 261.008C371.723 259.807 372.652 258.777 373.723 257.972V257.972Z" fill="black"/>
<path opacity="0.1" d="M361.456 315.093C361.369 315.862 361.219 316.619 361.009 317.356C361.744 316.182 362.307 314.878 362.676 313.495C362.311 314.068 361.903 314.603 361.456 315.093V315.093Z" fill="black"/>
</g>
<path opacity="0.1" d="M404.238 215.561C405.813 214.366 407.083 212.708 407.916 210.757C410.11 205.758 409.203 200.135 405.892 198.202C402.58 196.27 398.116 198.759 395.922 203.763C395.053 205.698 394.649 207.865 394.752 210.041C393.19 211.253 391.924 212.906 391.074 214.844C390.224 216.781 389.82 218.937 389.899 221.106C388.323 222.3 387.053 223.958 386.221 225.91C385.952 226.522 385.726 227.158 385.546 227.812C386.713 225.863 388.405 224.414 390.359 223.688C390.581 224.482 390.938 225.217 391.409 225.851C391.879 226.485 392.454 227.005 393.1 227.381C393.746 227.756 394.45 227.981 395.171 228.04C395.893 228.1 396.617 227.994 397.303 227.729C397.963 229.97 397.963 232.4 397.303 234.641C397.652 234.085 397.963 233.499 398.233 232.888C399.099 230.958 399.503 228.796 399.403 226.626C400.967 225.416 402.235 223.763 403.084 221.825C403.934 219.888 404.338 217.73 404.256 215.561H404.238Z" fill="#3F3D56"/>
<path opacity="0.1" d="M457.575 144.622C458.922 143.897 460.224 143.065 461.472 142.133L447.025 129.959L464.005 140.045C467.441 136.898 470.283 132.975 472.357 128.516C474.432 124.058 475.695 119.158 476.071 114.116L447.213 114.456L476.133 108.88C475.834 103.833 474.644 98.9105 472.635 94.4139C470.626 89.9174 467.842 85.942 464.453 82.7318C461.063 79.5217 457.141 77.1447 452.926 75.7468C448.711 74.3489 444.293 73.9596 439.943 74.6028C435.593 75.2461 431.403 76.9083 427.63 79.4873C423.857 82.0664 420.581 85.5079 418.004 89.6003C415.426 93.6928 413.601 98.3498 412.641 103.285C411.681 108.221 411.606 113.331 412.42 118.301C410.323 119.426 408.336 120.808 406.495 122.424L421.576 146.612L403.47 125.439C399.648 129.767 396.823 135.126 395.249 141.03C393.676 146.934 393.403 153.198 394.457 159.254C388.987 162.199 384.346 166.859 381.063 172.702C377.781 178.544 375.99 185.334 375.895 192.296C375.8 199.257 377.405 206.108 380.526 212.068C383.647 218.027 388.159 222.853 393.546 225.995C398.932 229.136 404.977 230.467 410.988 229.834C416.999 229.202 422.735 226.632 427.54 222.417C432.345 218.203 436.025 212.515 438.159 206.003C440.294 199.491 440.797 192.417 439.612 185.591C446.157 182.077 451.487 176.126 454.746 168.695C458.004 161.264 459.001 152.785 457.575 144.622Z" fill="#6C63FF"/>
<path opacity="0.1" d="M397.303 135.18C394.034 142.607 393.034 151.09 394.466 159.254C388.996 162.199 384.355 166.859 381.072 172.702C377.79 178.544 375.999 185.334 375.904 192.296C375.809 199.257 377.414 206.108 380.535 212.068C383.656 218.027 388.168 222.853 393.555 225.995C398.941 229.136 404.986 230.467 410.997 229.835C417.008 229.202 422.744 226.632 427.549 222.417C432.354 218.203 436.034 212.515 438.168 206.003C440.303 199.491 440.806 192.417 439.62 185.591C445.934 182.21 398.921 131.464 397.303 135.18Z" fill="black"/>
<path opacity="0.1" d="M433.561 81.4506C436.199 81.4506 438.338 78.9839 438.338 75.941C438.338 72.8982 436.199 70.4315 433.561 70.4315C430.923 70.4315 428.784 72.8982 428.784 75.941C428.784 78.9839 430.923 81.4506 433.561 81.4506Z" fill="#6C63FF"/>
<path opacity="0.1" d="M437.86 210.567C440.498 210.567 442.637 208.1 442.637 205.057C442.637 202.014 440.498 199.547 437.86 199.547C435.222 199.547 433.083 202.014 433.083 205.057C433.083 208.1 435.222 210.567 437.86 210.567Z" fill="#6C63FF"/>
<path opacity="0.1" d="M437.86 210.567C440.498 210.567 442.637 208.1 442.637 205.057C442.637 202.014 440.498 199.547 437.86 199.547C435.222 199.547 433.083 202.014 433.083 205.057C433.083 208.1 435.222 210.567 437.86 210.567Z" fill="black"/>
<path opacity="0.1" d="M393.746 152.41C396.384 152.41 398.523 149.943 398.523 146.9C398.523 143.857 396.384 141.391 393.746 141.391C391.108 141.391 388.969 143.857 388.969 146.9C388.969 149.943 391.108 152.41 393.746 152.41Z" fill="#6C63FF"/>
<path opacity="0.1" d="M393.746 152.41C396.384 152.41 398.523 149.943 398.523 146.9C398.523 143.857 396.384 141.391 393.746 141.391C391.108 141.391 388.969 143.857 388.969 146.9C388.969 149.943 391.108 152.41 393.746 152.41Z" fill="black"/>
<path opacity="0.1" d="M388.652 237.522C385.475 235.671 384.514 230.43 386.369 225.595C386.27 225.791 386.176 225.992 386.087 226.203C383.893 231.203 384.8 236.821 388.111 238.753C391.423 240.686 395.887 238.197 398.076 233.197C398.17 232.991 398.251 232.78 398.331 232.574C396.057 237.166 391.825 239.377 388.652 237.522Z" fill="black"/>
<path opacity="0.1" d="M383.933 248.283C380.761 246.433 379.795 241.191 381.654 236.352C381.556 236.553 381.458 236.754 381.368 236.96C379.174 241.959 380.081 247.582 383.393 249.509C386.704 251.437 391.168 248.958 393.362 243.954C393.451 243.747 393.536 243.541 393.617 243.33C391.338 247.922 387.11 250.133 383.933 248.283Z" fill="black"/>
<path opacity="0.1" d="M379.214 259.039C376.042 257.189 375.077 251.947 376.935 247.113C376.837 247.309 376.739 247.51 376.649 247.721C374.455 252.72 375.367 258.338 378.678 260.271C381.989 262.204 386.449 259.714 388.643 254.715C388.732 254.509 388.817 254.298 388.898 254.091C386.623 258.684 382.392 260.895 379.214 259.039Z" fill="black"/>
<path opacity="0.1" d="M374.514 269.826C371.336 267.976 370.376 262.734 372.23 257.9C372.132 258.096 372.038 258.297 371.944 258.503C369.754 263.502 370.662 269.125 373.973 271.058C377.284 272.991 381.748 270.501 383.938 265.497C384.032 265.291 384.112 265.085 384.192 264.873C381.905 269.44 377.673 271.651 374.514 269.826Z" fill="black"/>
<path opacity="0.1" d="M369.781 280.557C366.604 278.706 365.643 273.465 367.498 268.631C367.4 268.826 367.306 269.027 367.216 269.239C365.022 274.238 365.929 279.856 369.241 281.789C372.552 283.721 377.016 281.232 379.21 276.233C379.299 276.026 379.384 275.815 379.465 275.609C377.195 280.201 372.954 282.412 369.781 280.557Z" fill="black"/>
<path opacity="0.1" d="M365.062 291.318C361.89 289.468 360.925 284.226 362.784 279.392C362.685 279.588 362.587 279.789 362.498 279.995C360.303 284.994 361.211 290.617 364.526 292.55C367.842 294.483 372.279 291.988 374.513 286.989C374.603 286.783 374.688 286.577 374.768 286.365C372.467 290.957 368.257 293.168 365.062 291.318Z" fill="black"/>
<path opacity="0.1" d="M360.344 302.074C357.171 300.224 356.206 294.983 358.065 290.148C357.966 290.349 357.873 290.545 357.779 290.756C355.589 295.756 356.496 301.373 359.807 303.306C363.119 305.239 367.583 302.749 369.772 297.75C369.866 297.544 369.947 297.333 370.027 297.127C367.753 301.719 363.521 303.93 360.344 302.074Z" fill="black"/>
<path opacity="0.1" d="M355.629 312.836C352.452 310.985 351.491 305.744 353.346 300.91C353.248 301.105 353.154 301.306 353.064 301.513C350.87 306.512 351.777 312.135 355.089 314.068C358.4 316 362.864 313.511 365.058 308.506C365.147 308.3 365.228 308.094 365.308 307.883C363.034 312.475 358.802 314.665 355.629 312.836Z" fill="black"/>
<path opacity="0.1" d="M352.528 319.907C349.355 318.051 348.39 312.815 350.249 307.976C350.151 308.177 350.053 308.378 349.963 308.584C347.769 313.583 348.676 319.206 351.987 321.133C355.299 323.061 359.763 320.582 361.957 315.578C362.046 315.371 362.131 315.165 362.211 314.954C359.932 319.546 355.701 321.757 352.528 319.907Z" fill="black"/>
<path opacity="0.1" d="M437.784 272.022C438.276 270.394 438.577 268.697 438.678 266.976C439.006 266.975 439.33 266.896 439.631 266.744C439.931 266.592 440.202 266.37 440.424 266.092C440.647 265.814 440.818 265.486 440.926 265.129C441.034 264.771 441.077 264.392 441.052 264.015C441.027 263.637 440.934 263.27 440.781 262.935C440.627 262.601 440.415 262.306 440.158 262.071C439.902 261.835 439.605 261.663 439.288 261.565C438.971 261.467 438.64 261.446 438.316 261.503C437.784 258.713 436.721 256.095 435.203 253.839C433.685 251.582 431.75 249.744 429.539 248.458C429.825 247.806 429.874 247.05 429.677 246.356C429.479 245.662 429.05 245.087 428.485 244.758C427.919 244.428 427.264 244.371 426.662 244.599C426.06 244.827 425.562 245.322 425.276 245.974C425.173 246.206 425.101 246.454 425.062 246.711C422.44 246.148 419.739 246.314 417.185 247.197C414.63 248.08 412.295 249.654 410.374 251.788C408.923 251.517 407.448 251.467 405.986 251.638L404.051 261.796L403.934 252.004C401.714 252.565 399.615 253.643 397.768 255.172C395.921 256.7 394.363 258.647 393.19 260.894C392.017 263.14 391.254 265.638 390.947 268.237C390.64 270.835 390.795 273.478 391.403 276.004C392.012 278.531 393.061 280.888 394.486 282.931C395.911 284.974 397.682 286.661 399.691 287.888C401.701 289.114 403.906 289.856 406.172 290.066C408.438 290.277 410.718 289.952 412.872 289.112C413.102 289.592 413.452 289.98 413.877 290.225C414.315 290.482 414.81 290.576 415.296 290.496C415.782 290.416 416.234 290.165 416.592 289.777C416.95 289.389 417.195 288.884 417.294 288.33C417.394 287.775 417.343 287.199 417.148 286.68C417.91 286.076 418.628 285.4 419.293 284.659C422.781 285.313 426.36 284.677 429.516 282.841C432.671 281.005 435.242 278.064 436.859 274.439L427.855 272.692L437.784 272.022Z" fill="#6C63FF"/>
<g opacity="0.1">
<path opacity="0.1" d="M423.873 276.954C420.549 271.893 418.511 265.899 416.165 260.147C415.223 257.786 414.168 255.488 413.006 253.262L411.245 250.896C410.95 251.185 410.655 251.483 410.351 251.798C408.901 251.527 407.425 251.477 405.963 251.648L404.028 261.807L403.912 252.014C401.691 252.576 399.593 253.654 397.746 255.182C395.898 256.711 394.341 258.657 393.168 260.904C391.995 263.15 391.232 265.649 390.924 268.247C390.617 270.845 390.773 273.488 391.381 276.015C391.99 278.541 393.038 280.898 394.463 282.941C395.888 284.985 397.66 286.671 399.669 287.898C401.678 289.125 403.884 289.866 406.15 290.077C408.416 290.287 410.696 289.963 412.849 289.123C413.08 289.602 413.43 289.99 413.855 290.236C414.292 290.492 414.788 290.587 415.274 290.506C415.759 290.426 416.212 290.175 416.57 289.787C416.927 289.4 417.173 288.894 417.272 288.34C417.372 287.786 417.321 287.209 417.126 286.69C417.888 286.086 418.605 285.41 419.271 284.67C422.686 285.307 426.189 284.709 429.298 282.958C427.223 281.305 425.391 279.278 423.873 276.954V276.954Z" fill="black"/>
</g>
<path opacity="0.1" d="M365 255.205C365.184 254.784 365.272 254.317 365.255 253.846C365.237 253.376 365.116 252.918 364.901 252.518C364.687 252.117 364.387 251.786 364.031 251.557C363.674 251.329 363.272 251.209 362.864 251.21C362.187 247.068 360.35 243.297 357.636 240.475C358.073 238.507 358.239 236.472 358.127 234.445L349.346 232.718L357.873 232.1C357.719 231.176 357.509 230.267 357.242 229.378C357.574 229.115 357.845 228.761 358.029 228.348C358.244 227.855 358.326 227.299 358.264 226.752C358.203 226.205 358 225.692 357.683 225.279C357.366 224.866 356.949 224.573 356.486 224.436C356.022 224.299 355.534 224.326 355.084 224.513C352.826 220.833 349.522 218.181 345.745 217.019C341.968 215.857 337.957 216.258 334.41 218.152C330.863 220.046 328.003 223.314 326.327 227.387C324.652 231.46 324.267 236.082 325.239 240.449C324.722 240.701 324.3 241.158 324.05 241.737C323.831 242.237 323.749 242.801 323.815 243.355C323.88 243.909 324.091 244.427 324.419 244.84C324.747 245.253 325.175 245.54 325.648 245.665C326.121 245.789 326.616 245.744 327.066 245.536C327.923 247.196 328.991 248.699 330.234 249.994C329.329 254.065 329.602 258.365 331.012 262.24L342.787 258.714L332.286 265.085C334.142 268.488 336.875 271.136 340.101 272.66C343.327 274.184 346.885 274.506 350.278 273.583C353.671 272.66 356.728 270.536 359.024 267.51C361.319 264.484 362.736 260.706 363.078 256.704C363.483 256.664 363.872 256.505 364.208 256.243C364.544 255.98 364.817 255.623 365 255.205V255.205Z" fill="#6C63FF"/>
<path opacity="0.1" d="M365 255.205C365.184 254.784 365.272 254.317 365.255 253.846C365.237 253.376 365.116 252.918 364.901 252.518C364.687 252.117 364.387 251.786 364.031 251.557C363.674 251.329 363.272 251.209 362.864 251.21C362.187 247.068 360.35 243.297 357.636 240.475C357.707 240.15 357.77 239.83 357.823 239.506C357.512 239.766 357.223 240.062 356.961 240.387C355.375 242.392 354.561 245.087 352.993 247.113C351.143 249.504 348.372 250.752 345.606 251.087C342.84 251.422 340.056 250.932 337.326 250.319C335.065 249.803 332.773 249.205 330.48 249.458C330.257 249.458 330.033 249.515 329.828 249.556C329.962 249.705 330.096 249.855 330.234 249.999C329.329 254.07 329.602 258.37 331.012 262.245L342.787 258.714L332.286 265.085C334.142 268.488 336.875 271.136 340.101 272.66C343.327 274.184 346.885 274.506 350.278 273.583C353.671 272.66 356.728 270.536 359.024 267.51C361.319 264.484 362.736 260.706 363.078 256.704C363.483 256.664 363.872 256.505 364.208 256.243C364.544 255.98 364.817 255.623 365 255.205V255.205Z" fill="black"/>
</g>
<g opacity="0.1">
<path opacity="0.1" d="M59.9892 286.489C60.5611 284.484 62.8803 283.561 65.1682 284.427C65.4973 284.552 65.8159 284.71 66.12 284.901C66.2675 284.855 66.4194 284.814 66.5669 284.783C66.4414 284.207 66.3931 283.613 66.4239 283.02C65.6385 282.408 65.0018 281.574 64.574 280.598C64.1463 279.622 63.9417 278.536 63.9796 277.444C63.1874 276.842 62.5487 276.008 62.1296 275.027C61.6929 274.054 61.4878 272.966 61.5353 271.872C60.7436 271.268 60.1052 270.432 59.6853 269.45C58.586 266.935 59.0329 264.105 60.7086 263.126C62.3843 262.147 64.6275 263.41 65.7313 265.925C66.1672 266.899 66.3708 267.989 66.3211 269.084C67.1086 269.693 67.7471 270.525 68.1751 271.501C68.6032 272.477 68.8065 273.563 68.7654 274.655C69.5527 275.266 70.1908 276.099 70.6188 277.076C71.0468 278.052 71.2503 279.139 71.2097 280.232C71.9972 280.841 72.6357 281.673 73.0637 282.649C73.4918 283.625 73.6951 284.711 73.654 285.803C74.4474 286.407 75.0874 287.243 75.5085 288.226C75.7094 288.701 75.8595 289.203 75.9554 289.72C76.2306 289.253 76.5668 288.838 76.9518 288.489C76.9978 288.091 77.0756 287.7 77.1842 287.319C77.9394 284.68 79.9547 283.072 81.693 283.711C83.4313 284.35 84.2267 287.046 83.4804 289.684C83.172 290.817 82.5796 291.82 81.7779 292.565C81.7315 292.961 81.6537 293.351 81.5455 293.73C81.1787 295.129 80.3617 296.313 79.2621 297.039C79.3483 297.376 79.4111 297.721 79.4498 298.07C79.9111 298.58 80.2935 299.178 80.5803 299.838C80.8727 300.495 81.0632 301.207 81.1434 301.94C81.6064 302.451 81.9903 303.048 82.2784 303.708C82.5702 304.366 82.7607 305.078 82.8414 305.811C83.3056 306.322 83.6896 306.922 83.9764 307.584C85.0802 310.099 84.6244 312.934 82.9576 313.903C81.2908 314.871 79.0387 313.624 77.9349 311.104C77.6439 310.446 77.4534 309.734 77.3719 309.001C76.4409 307.971 75.842 306.606 75.6738 305.131C74.7428 304.101 74.1439 302.735 73.9758 301.26C73.513 300.749 73.1292 300.152 72.8408 299.492C72.5518 298.833 72.3614 298.122 72.2777 297.389C71.8164 296.879 71.434 296.281 71.1472 295.622C70.8548 294.964 70.6643 294.252 70.5841 293.519C70.2964 293.21 70.0401 292.864 69.82 292.488C68.9006 292.705 67.9479 292.637 67.0584 292.292C66.7281 292.165 66.4081 292.005 66.1022 291.813C65.1083 292.117 64.0585 292.074 63.0859 291.689C60.8203 290.818 59.4217 288.494 59.9892 286.489Z" fill="#3F3D56"/>
<g opacity="0.1">
<path opacity="0.1" d="M64.0243 278.588C64.2612 278.857 64.5218 279.097 64.8018 279.304C64.764 280.044 64.8489 280.786 65.0521 281.49C64.8725 281.208 64.714 280.91 64.5784 280.598C64.2989 279.968 64.1117 279.289 64.0243 278.588V278.588Z" fill="black"/>
<path opacity="0.1" d="M61.58 273.022C61.8181 273.288 62.0786 273.526 62.3575 273.733C62.32 274.475 62.4049 275.218 62.6078 275.923C62.0665 275.066 61.7138 274.071 61.58 273.022V273.022Z" fill="black"/>
<path opacity="0.1" d="M67.1344 270.945C67.1557 270.563 67.1437 270.18 67.0987 269.801C67.5355 270.298 67.8992 270.874 68.1756 271.506C68.3105 271.819 68.424 272.143 68.5152 272.475C68.1428 271.869 67.6743 271.35 67.1344 270.945V270.945Z" fill="black"/>
<path opacity="0.1" d="M82.6403 304.682C82.445 304.366 82.2235 304.073 81.979 303.806C81.9382 303.457 81.8724 303.112 81.7824 302.775C81.9763 303.078 82.1482 303.399 82.2962 303.734C82.4318 304.039 82.5469 304.356 82.6403 304.682V304.682Z" fill="black"/>
<path opacity="0.1" d="M80.9289 300.812C80.7335 300.496 80.512 300.202 80.2675 299.935C80.231 299.586 80.1682 299.241 80.0798 298.905C80.448 299.48 80.7318 300.12 80.9199 300.801L80.9289 300.812Z" fill="black"/>
<path opacity="0.1" d="M66.4731 284.175C66.7076 284.442 66.9669 284.679 67.2461 284.881C67.2127 285.473 67.261 286.068 67.3891 286.644C67.2385 286.674 67.0894 286.714 66.9423 286.762C66.6362 286.572 66.3162 286.413 65.986 286.288C63.6981 285.422 61.3789 286.345 60.8114 288.349C60.6692 288.848 60.643 289.381 60.7354 289.896C60.3678 289.45 60.1063 288.902 59.9764 288.305C59.8464 287.708 59.8523 287.082 59.9936 286.489C60.5656 284.484 62.8848 283.561 65.1727 284.427C65.5018 284.552 65.8204 284.71 66.1245 284.901C66.272 284.855 66.4239 284.814 66.5714 284.783C66.5284 284.583 66.4956 284.38 66.4731 284.175V284.175Z" fill="black"/>
<path opacity="0.1" d="M83.4804 306.625C83.6753 306.929 83.8473 307.251 83.9943 307.589C84.1307 307.901 84.2458 308.225 84.3384 308.558C84.143 308.24 83.9216 307.945 83.677 307.677C83.6372 307.32 83.5715 306.969 83.4804 306.625V306.625Z" fill="black"/>
<path opacity="0.1" d="M69.5787 276.526C69.6001 276.145 69.5881 275.761 69.543 275.382C69.9809 275.879 70.3447 276.455 70.6199 277.088C70.7548 277.399 70.8684 277.721 70.9595 278.052C70.587 277.447 70.1185 276.93 69.5787 276.526V276.526Z" fill="black"/>
<path opacity="0.1" d="M73.1133 299.255C73.1552 299.64 73.2285 300.02 73.3323 300.389C72.9599 299.8 72.676 299.143 72.4922 298.446C72.6779 298.737 72.8858 299.007 73.1133 299.255V299.255Z" fill="black"/>
<path opacity="0.1" d="M76.505 306.996C76.5501 307.381 76.6248 307.761 76.7284 308.13C76.5489 307.849 76.3904 307.551 76.2548 307.239C76.1078 306.907 75.9852 306.563 75.8883 306.208C76.0755 306.489 76.2817 306.753 76.505 306.996V306.996Z" fill="black"/>
<path opacity="0.1" d="M74.8114 303.126C74.8532 303.511 74.9265 303.89 75.0304 304.26C74.8524 303.977 74.694 303.679 74.5567 303.368C74.4092 303.037 74.2866 302.692 74.1903 302.337C74.3768 302.621 74.5846 302.884 74.8114 303.126V303.126Z" fill="black"/>
<path opacity="0.1" d="M71.4153 295.379C71.4566 295.766 71.5299 296.148 71.6342 296.518C71.4648 296.235 71.3154 295.937 71.1874 295.627C71.0376 295.296 70.9135 294.952 70.8165 294.596C70.995 294.878 71.1955 295.14 71.4153 295.379V295.379Z" fill="black"/>
<path opacity="0.1" d="M82.5286 285.592C80.7903 284.932 78.775 286.54 78.0243 289.2C77.9156 289.581 77.8378 289.972 77.7919 290.37C77.4054 290.717 77.0678 291.13 76.791 291.596C76.6872 291.078 76.5297 290.576 76.3218 290.102C76.2458 289.927 76.1609 289.756 76.0715 289.586C76.3252 289.18 76.6259 288.816 76.9652 288.504C77.0112 288.107 77.089 287.715 77.1976 287.334C77.9528 284.695 79.9681 283.087 81.7064 283.726C82.2048 283.947 82.6454 284.313 82.9852 284.788C83.325 285.263 83.5525 285.831 83.6457 286.437C83.3421 286.05 82.9575 285.759 82.5286 285.592V285.592Z" fill="black"/>
<path opacity="0.1" d="M74.4673 287.669C74.4886 287.287 74.4766 286.904 74.4316 286.525C74.8695 287.021 75.2333 287.598 75.5085 288.231C75.6434 288.543 75.757 288.867 75.8481 289.2C75.4769 288.593 75.0082 288.073 74.4673 287.669V287.669Z" fill="black"/>
<path opacity="0.1" d="M72.023 282.093C72.0442 281.711 72.0322 281.328 71.9873 280.948C72.4231 281.447 72.7867 282.023 73.0642 282.654C73.1991 282.967 73.3127 283.291 73.4038 283.623C73.0314 283.017 72.5629 282.498 72.023 282.093V282.093Z" fill="black"/>
<path opacity="0.1" d="M78.203 310.867C78.2459 311.254 78.3208 311.635 78.4265 312.006C78.2479 311.722 78.0895 311.422 77.9528 311.109C77.8058 310.778 77.6833 310.433 77.5864 310.078C77.7735 310.36 77.9797 310.623 78.203 310.867Z" fill="black"/>
</g>
<path opacity="0.1" d="M56.6512 260.724C55.8589 260.123 55.2203 259.289 54.8012 258.307C53.6974 255.787 54.1532 252.958 55.82 251.983C57.4868 251.009 59.7389 252.262 60.8427 254.782C61.2792 255.754 61.4829 256.843 61.4325 257.936C62.2197 258.547 62.8579 259.38 63.2859 260.356C63.7139 261.333 63.9173 262.42 63.8768 263.513C64.6696 264.115 65.3095 264.949 65.7313 265.93C65.8654 266.239 65.9789 266.56 66.0709 266.889C65.479 265.914 64.6268 265.19 63.6445 264.827C63.535 265.23 63.3571 265.603 63.1212 265.925C62.8852 266.248 62.5959 266.513 62.2701 266.705C61.9443 266.897 61.5887 267.012 61.2239 267.043C60.8591 267.075 60.4925 267.022 60.1456 266.889C59.8143 268.017 59.8143 269.239 60.1456 270.367C59.9777 270.087 59.8283 269.792 59.6987 269.486C59.262 268.514 59.0569 267.425 59.1044 266.332C58.3181 265.72 57.6807 264.887 57.2528 263.911C56.8249 262.935 56.6209 261.848 56.6601 260.755L56.6512 260.724Z" fill="#3F3D56"/>
<path opacity="0.1" d="M29.7862 224.987C29.1083 224.622 28.4529 224.203 27.8245 223.735L35.0993 217.602L26.5464 222.678C24.8172 221.092 23.3867 219.116 22.3425 216.87C21.2983 214.625 20.6624 212.157 20.4737 209.618L35.0144 209.793L20.4424 206.979C20.5679 204.415 21.1498 201.909 22.1519 199.616C23.154 197.322 24.5548 195.292 26.267 193.65C27.9793 192.008 29.9663 190.791 32.1042 190.074C34.2422 189.357 36.4853 189.155 38.6938 189.481C40.9023 189.808 43.0288 190.655 44.941 191.971C46.8531 193.286 48.5099 195.042 49.808 197.129C51.1062 199.215 52.0179 201.587 52.4864 204.098C52.9549 206.608 52.9701 209.203 52.5311 211.721C53.5867 212.284 54.5873 212.975 55.5161 213.783L47.9196 225.966L57.0399 215.308C58.9645 217.488 60.3874 220.188 61.1801 223.162C61.9728 226.136 62.1102 229.291 61.58 232.342C64.3389 233.824 66.6805 236.172 68.3371 239.117C69.9936 242.061 70.8981 245.485 70.9473 248.994C70.9964 252.504 70.1882 255.959 68.6149 258.964C67.0417 261.969 64.7671 264.403 62.051 265.987C59.335 267.571 56.2873 268.242 53.2564 267.922C50.2255 267.603 47.3338 266.306 44.9119 264.18C42.49 262.054 40.6357 259.185 39.561 255.9C38.4864 252.616 38.2348 249.049 38.835 245.608C35.5421 243.838 32.86 240.844 31.2191 237.105C29.5782 233.367 29.0736 229.101 29.7862 224.992V224.987Z" fill="#6C63FF"/>
<path opacity="0.1" d="M60.15 220.235C61.7981 223.976 62.302 228.25 61.58 232.362C64.3389 233.845 66.6805 236.192 68.3371 239.137C69.9936 242.082 70.8981 245.505 70.9473 249.015C70.9964 252.525 70.1882 255.98 68.6149 258.985C67.0417 261.99 64.7671 264.424 62.051 266.008C59.335 267.592 56.2873 268.263 53.2564 267.943C50.2255 267.623 47.3338 266.326 44.9119 264.2C42.49 262.074 40.6357 259.205 39.561 255.921C38.4864 252.637 38.2348 249.07 38.835 245.629C35.6489 243.923 59.3323 218.364 60.15 220.235Z" fill="black"/>
<path opacity="0.1" d="M41.8826 193.167C43.2128 193.167 44.2911 191.923 44.2911 190.389C44.2911 188.855 43.2128 187.611 41.8826 187.611C40.5523 187.611 39.474 188.855 39.474 190.389C39.474 191.923 40.5523 193.167 41.8826 193.167Z" fill="#6C63FF"/>
<path opacity="0.1" d="M27.8244 194.95C29.1547 194.95 30.233 193.706 30.233 192.172C30.233 190.638 29.1547 189.394 27.8244 189.394C26.4942 189.394 25.4159 190.638 25.4159 192.172C25.4159 193.706 26.4942 194.95 27.8244 194.95Z" fill="#6C63FF"/>
<path opacity="0.1" d="M22.4086 219.89C23.7388 219.89 24.8171 218.646 24.8171 217.112C24.8171 215.578 23.7388 214.334 22.4086 214.334C21.0783 214.334 20 215.578 20 217.112C20 218.646 21.0783 219.89 22.4086 219.89Z" fill="#6C63FF"/>
<path opacity="0.1" d="M29.7236 232.347C31.0538 232.347 32.1321 231.103 32.1321 229.569C32.1321 228.035 31.0538 226.791 29.7236 226.791C28.3934 226.791 27.315 228.035 27.315 229.569C27.315 231.103 28.3934 232.347 29.7236 232.347Z" fill="#6C63FF"/>
<path opacity="0.1" d="M39.7153 258.214C41.0455 258.214 42.1239 256.971 42.1239 255.437C42.1239 253.902 41.0455 252.659 39.7153 252.659C38.3851 252.659 37.3067 253.902 37.3067 255.437C37.3067 256.971 38.3851 258.214 39.7153 258.214Z" fill="#6C63FF"/>
<path opacity="0.1" d="M39.7153 258.214C41.0455 258.214 42.1239 256.971 42.1239 255.437C42.1239 253.902 41.0455 252.659 39.7153 252.659C38.3851 252.659 37.3067 253.902 37.3067 255.437C37.3067 256.971 38.3851 258.214 39.7153 258.214Z" fill="black"/>
<path opacity="0.1" d="M61.9375 228.914C63.2677 228.914 64.346 227.671 64.346 226.137C64.346 224.602 63.2677 223.359 61.9375 223.359C60.6073 223.359 59.5289 224.602 59.5289 226.137C59.5289 227.671 60.6073 228.914 61.9375 228.914Z" fill="#6C63FF"/>
<path opacity="0.1" d="M61.9375 228.914C63.2677 228.914 64.346 227.671 64.346 226.137C64.346 224.602 63.2677 223.359 61.9375 223.359C60.6073 223.359 59.5289 224.602 59.5289 226.137C59.5289 227.671 60.6073 228.914 61.9375 228.914Z" fill="black"/>
<path opacity="0.1" d="M64.5069 271.79C66.1066 270.857 66.5893 268.218 65.6553 265.78C65.7045 265.884 65.7536 265.981 65.7983 266.085C66.902 268.605 66.4463 271.434 64.775 272.408C63.1038 273.382 60.8605 272.13 59.7568 269.61C59.7121 269.507 59.6674 269.404 59.6272 269.295C60.7756 271.609 62.9072 272.723 64.5069 271.79Z" fill="black"/>
<path opacity="0.1" d="M66.8797 277.212C68.4794 276.279 68.9665 273.635 68.0326 271.202C68.0817 271.3 68.1309 271.403 68.1756 271.506C69.2793 274.027 68.8235 276.856 67.1523 277.83C65.481 278.804 63.2378 277.552 62.1341 275.032C62.0849 274.929 62.0447 274.82 62.0045 274.717C63.1529 277.042 65.2889 278.145 66.8797 277.212Z" fill="black"/>
<path opacity="0.1" d="M69.257 282.629C70.8567 281.696 71.3438 279.057 70.4054 276.619C70.459 276.722 70.5037 276.82 70.5529 276.928C71.6566 279.443 71.1963 282.278 69.5296 283.247C67.8628 284.216 65.6151 282.969 64.5114 280.448C64.4622 280.345 64.422 280.242 64.3818 280.134C65.5257 282.448 67.6572 283.561 69.257 282.629Z" fill="black"/>
<path opacity="0.1" d="M71.6343 288.051C73.234 287.118 73.7211 284.479 72.7827 282.041C72.8318 282.139 72.881 282.242 72.9257 282.345C74.0339 284.865 73.5736 287.695 71.9068 288.669C70.2401 289.643 67.9879 288.391 66.8842 285.87C66.8395 285.767 66.7993 285.659 66.759 285.556C67.903 287.865 70.0345 288.983 71.6343 288.051Z" fill="black"/>
<path opacity="0.1" d="M74.0115 293.467C75.6113 292.534 76.0939 289.896 75.1599 287.463C75.2091 287.561 75.2583 287.664 75.3029 287.767C76.4067 290.287 75.9509 293.117 74.2841 294.091C72.6173 295.065 70.3652 293.807 69.2615 291.292C69.2168 291.184 69.1766 291.081 69.1319 290.978C70.2803 293.287 72.4118 294.4 74.0115 293.467Z" fill="black"/>
<path opacity="0.1" d="M76.3888 298.889C77.9885 297.956 78.4711 295.318 77.5372 292.88C77.5864 292.983 77.6355 293.081 77.6802 293.184C78.7839 295.704 78.3281 298.534 76.6614 299.508C74.9946 300.482 72.7425 299.229 71.6387 296.709C71.594 296.606 71.5493 296.503 71.5091 296.395C72.6575 298.688 74.789 299.822 76.3888 298.889Z" fill="black"/>
<path opacity="0.1" d="M78.7661 304.311C80.3614 303.378 80.8484 300.734 79.9145 298.302C79.9636 298.4 80.0128 298.503 80.0575 298.606C81.1612 301.126 80.7054 303.955 79.0342 304.93C77.3629 305.904 75.1197 304.646 74.016 302.131C73.9713 302.023 73.9266 301.92 73.8864 301.817C75.0348 304.126 77.1663 305.244 78.7661 304.311Z" fill="black"/>
<path opacity="0.1" d="M81.1389 309.728C82.7386 308.795 83.2257 306.156 82.2873 303.718C82.3409 303.821 82.3856 303.919 82.4348 304.028C83.5385 306.543 83.0782 309.377 81.4115 310.346C79.7447 311.315 77.497 310.068 76.3933 307.548C76.3441 307.445 76.3039 307.342 76.2637 307.233C77.4121 309.548 79.5391 310.661 81.1389 309.728Z" fill="black"/>
<path opacity="0.1" d="M82.7163 313.289C84.316 312.356 84.7987 309.718 83.8647 307.28C83.9139 307.383 83.963 307.481 84.0077 307.589C85.1114 310.104 84.6557 312.939 82.9889 313.908C81.3221 314.877 79.0699 313.629 77.9662 311.109C77.9215 311.006 77.8768 310.903 77.8366 310.795C78.9716 313.119 81.1031 314.222 82.7163 313.289Z" fill="black"/>
<path opacity="0.1" d="M39.7555 289.169C39.5073 288.349 39.357 287.494 39.3087 286.628C39.1434 286.627 38.9801 286.587 38.8288 286.511C38.6776 286.434 38.5417 286.322 38.4296 286.182C38.3175 286.042 38.2317 285.877 38.1775 285.697C38.1232 285.517 38.1017 285.326 38.1144 285.136C38.127 284.946 38.1735 284.761 38.2508 284.592C38.3282 284.424 38.4349 284.276 38.5642 284.157C38.6934 284.038 38.8425 283.952 39.0021 283.902C39.1618 283.853 39.3285 283.842 39.4919 283.871C39.76 282.466 40.2956 281.148 41.06 280.011C41.8243 278.875 42.7983 277.948 43.9113 277.299C43.7673 276.971 43.7424 276.589 43.8421 276.24C43.9419 275.89 44.158 275.6 44.443 275.434C44.7281 275.268 45.0586 275.239 45.362 275.354C45.6653 275.469 45.9167 275.718 46.0607 276.047C46.113 276.164 46.1492 276.289 46.1679 276.418C47.4902 276.138 48.8512 276.226 50.1382 276.674C51.4251 277.122 52.6009 277.918 53.5679 278.995C54.3064 278.856 55.0579 278.831 55.8021 278.923L56.7763 284.036L56.7986 279.103C57.9066 279.399 58.9512 279.95 59.8695 280.723C60.7879 281.497 61.5609 282.477 62.142 283.604C62.723 284.732 63.1002 285.983 63.2507 287.283C63.4011 288.583 63.3218 289.905 63.0175 291.169C62.7131 292.433 62.1901 293.612 61.4798 294.637C60.7696 295.661 59.8869 296.509 58.8849 297.129C57.8829 297.749 56.7824 298.129 55.6497 298.246C54.5171 298.362 53.3756 298.213 52.2943 297.807C52.1767 298.047 52.0013 298.242 51.7894 298.369C51.5685 298.497 51.3187 298.544 51.0738 298.504C50.8289 298.463 50.6008 298.337 50.4204 298.141C50.2399 297.946 50.1158 297.692 50.065 297.412C50.0141 297.133 50.0389 296.843 50.136 296.58C49.7528 296.272 49.3926 295.927 49.0591 295.549C47.3014 295.878 45.4987 295.556 43.9093 294.63C42.3199 293.704 41.0254 292.222 40.2113 290.396L44.7469 289.514L39.7555 289.169Z" fill="#6C63FF"/>
<g opacity="0.1">
<path opacity="0.1" d="M46.7622 291.653C48.4379 289.076 49.4657 286.087 50.6454 283.19C51.1178 281.998 51.649 280.839 52.2362 279.717L53.1299 278.526C53.2819 278.676 53.4293 278.825 53.5768 278.98C54.3154 278.84 55.0669 278.816 55.8111 278.907L56.7852 284.02L56.7986 279.103C57.9066 279.399 58.9512 279.95 59.8695 280.723C60.7879 281.497 61.5609 282.477 62.142 283.604C62.7231 284.732 63.1002 285.983 63.2507 287.283C63.4011 288.583 63.3218 289.905 63.0175 291.169C62.7131 292.433 62.1901 293.612 61.4798 294.637C60.7696 295.661 59.8869 296.509 58.8849 297.129C57.8829 297.749 56.7824 298.129 55.6497 298.246C54.5171 298.362 53.3756 298.213 52.2943 297.807C52.1767 298.047 52.0013 298.242 51.7894 298.369C51.5685 298.497 51.3187 298.544 51.0738 298.504C50.829 298.463 50.6008 298.337 50.4204 298.141C50.2399 297.946 50.1158 297.692 50.065 297.412C50.0141 297.133 50.0389 296.843 50.136 296.58C49.7528 296.272 49.3926 295.927 49.0591 295.549C47.3378 295.868 45.5732 295.567 44.0051 294.689C45.0598 293.855 45.9908 292.829 46.7622 291.653Z" fill="black"/>
</g>
<path opacity="0.1" d="M76.4201 280.696C76.3486 280.534 76.3057 280.357 76.2937 280.175C76.2818 279.993 76.3011 279.811 76.3505 279.638C76.3999 279.465 76.4785 279.305 76.5817 279.167C76.6849 279.03 76.8107 278.917 76.9518 278.835C77.1205 278.736 77.3075 278.684 77.497 278.686C77.8379 276.599 78.7624 274.698 80.129 273.274C79.908 272.284 79.825 271.259 79.8832 270.239L84.3026 269.383L80.0083 269.069C80.0861 268.603 80.1937 268.145 80.3301 267.698C80.1613 267.568 80.0243 267.391 79.9324 267.182C79.8249 266.934 79.7843 266.654 79.8156 266.379C79.847 266.104 79.949 265.846 80.1085 265.638C80.268 265.431 80.4777 265.283 80.7107 265.213C80.9436 265.144 81.1892 265.157 81.4159 265.25C82.2052 263.955 83.2597 262.905 84.4858 262.193C85.93 261.348 87.5548 261.001 89.1655 261.194C90.7763 261.387 92.3046 262.112 93.5672 263.282C94.8298 264.451 95.7732 266.016 96.2842 267.788C96.7952 269.561 96.8521 271.465 96.4482 273.274C96.6582 273.378 96.8382 273.549 96.9672 273.766C97.0961 273.984 97.1685 274.24 97.176 274.503C97.1835 274.766 97.1258 275.027 97.0095 275.254C96.8933 275.481 96.7234 275.665 96.5197 275.784C96.367 275.873 96.1995 275.924 96.0285 275.933C95.8574 275.942 95.6867 275.909 95.5277 275.836C95.0964 276.67 94.5586 277.424 93.9324 278.073C94.3904 280.128 94.2539 282.3 93.5436 284.257L87.6317 282.464L92.918 285.675C92.1243 287.135 91.0081 288.326 89.6838 289.126C88.3595 289.925 86.8748 290.303 85.3818 290.223C83.8888 290.142 82.4412 289.605 81.1876 288.666C79.934 287.727 78.9193 286.421 78.2477 284.881C77.7801 283.809 77.4863 282.647 77.3808 281.454C77.1779 281.432 76.9831 281.352 76.8149 281.219C76.6467 281.086 76.5108 280.906 76.4201 280.696V280.696Z" fill="#6C63FF"/>
<path opacity="0.1" d="M76.4201 280.696C76.3486 280.534 76.3057 280.357 76.2937 280.175C76.2818 279.993 76.3011 279.811 76.3505 279.638C76.3999 279.465 76.4785 279.305 76.5817 279.167C76.6849 279.03 76.8107 278.917 76.9518 278.835C77.1205 278.736 77.3075 278.684 77.497 278.686C77.8379 276.599 78.7624 274.698 80.129 273.274C80.0932 273.114 80.062 272.95 80.0351 272.79C80.1954 272.922 80.345 273.07 80.482 273.233C81.2819 274.264 81.693 275.599 82.4795 276.619C83.4649 277.792 84.7897 278.505 86.2018 278.624C87.6004 278.735 89.0056 278.605 90.3709 278.237C91.4969 277.903 92.6585 277.755 93.8207 277.799L94.1513 277.851L93.9458 278.073C94.4038 280.128 94.2673 282.3 93.557 284.257L87.6317 282.464L92.918 285.675C92.1244 287.135 91.0081 288.326 89.6838 289.126C88.3595 289.925 86.8748 290.303 85.3818 290.223C83.8888 290.142 82.4412 289.605 81.1876 288.666C79.934 287.727 78.9193 286.421 78.2477 284.881C77.7801 283.809 77.4863 282.647 77.3808 281.454C77.1779 281.432 76.9831 281.352 76.8149 281.219C76.6467 281.086 76.5108 280.906 76.4201 280.696V280.696Z" fill="black"/>
</g>
<path opacity="0.1" d="M174.769 49.754C173.002 49.3672 171.175 49.5969 169.523 50.4137C168.531 50.9233 167.458 51.1867 166.372 51.1867C165.287 51.1867 164.213 50.9233 163.222 50.4137C162.05 49.8212 160.781 49.5296 159.501 49.5589C158.222 49.5883 156.964 49.938 155.813 50.5838C155.156 50.984 154.425 51.1945 153.682 51.1971C150.679 51.1971 148.181 47.7079 147.662 43.1054C148.261 42.5992 148.771 41.966 149.164 41.2397C150.924 37.967 153.632 35.8642 156.711 35.8642C159.79 35.8642 162.471 37.9257 164.232 41.1779C164.758 42.1545 165.493 42.9586 166.366 43.5128C167.24 44.0671 168.222 44.3527 169.219 44.3424H169.299C171.668 44.3269 173.736 46.5379 174.769 49.754Z" fill="#6C63FF"/>
<path opacity="0.1" d="M295.098 423.398C323.479 423.398 346.487 418.783 346.487 413.09C346.487 407.397 323.479 402.782 295.098 402.782C266.717 402.782 243.71 407.397 243.71 413.09C243.71 418.783 266.717 423.398 295.098 423.398Z" fill="#C1C0C5"/>
<path d="M268.202 364.127L188.577 362.947L188.813 360.592L192.661 321.737H262.589L267.733 360.592L268.126 363.54L268.202 364.127Z" fill="#D0D2D5"/>
<path opacity="0.1" d="M268.126 363.54H228.391L188.577 362.947L188.813 360.592H267.733L268.126 363.54Z" fill="black"/>
<path d="M280.964 361.185H175.305V364.127H280.964V361.185Z" fill="#D0D2D5"/>
<path d="M381.771 88.3671C381.777 86.3363 381.083 84.3858 379.843 82.944C378.603 81.5022 376.918 80.687 375.157 80.6775H80.0888C79.2162 80.6822 78.3529 80.8851 77.5483 81.2747C76.7437 81.6642 76.0135 82.2327 75.3994 82.9477C74.7853 83.6627 74.2992 84.5102 73.9691 85.4418C73.639 86.3735 73.4712 87.371 73.4753 88.3774V294.663H381.771V88.3671Z" fill="#C1C0C5"/>
<path d="M73.4753 292.601V316.763C73.4753 318.786 74.1721 320.726 75.4123 322.157C76.6526 323.587 78.3348 324.391 80.0888 324.391H375.157C376.911 324.391 378.593 323.587 379.833 322.157C381.074 320.726 381.77 318.786 381.77 316.763V292.601H73.4753Z" fill="#D0D2D5"/>
<path d="M370.541 93.6138H86.2375V279.057H370.541V93.6138Z" fill="white"/>
<path d="M229.156 315.222C230.2 315.223 231.23 314.951 232.169 314.425C233.108 313.899 233.931 313.133 234.576 312.186C234.772 311.898 234.951 311.595 235.112 311.279L231.327 310.542L235.416 310.573C235.808 309.59 236.022 308.524 236.044 307.442C236.066 306.36 235.897 305.284 235.546 304.28L230.063 307.558L235.121 303.27C234.646 302.328 234.008 301.509 233.247 300.864C232.486 300.218 231.618 299.76 230.697 299.518C229.776 299.276 228.821 299.255 227.893 299.456C226.964 299.657 226.082 300.076 225.3 300.687C224.518 301.299 223.853 302.089 223.347 303.009C222.841 303.929 222.504 304.959 222.358 306.036C222.211 307.112 222.259 308.212 222.496 309.266C222.734 310.321 223.157 311.308 223.74 312.166C224.382 313.116 225.204 313.885 226.142 314.414C227.08 314.944 228.111 315.22 229.156 315.222Z" fill="#C1C0C5"/>
<path opacity="0.1" d="M236.046 324.386L267.813 361.185L262.938 324.386H236.046Z" fill="black"/>
<path opacity="0.1" d="M370.626 93.6344H86.0141V104.468H370.626V93.6344Z" fill="#444053"/>
<path opacity="0.3" d="M270.324 95.5208H185.091C184.948 95.5208 184.832 95.6546 184.832 95.8197V101.814C184.832 101.979 184.948 102.113 185.091 102.113H270.324C270.468 102.113 270.584 101.979 270.584 101.814V95.8197C270.584 95.6546 270.468 95.5208 270.324 95.5208Z" fill="#6C63FF"/>
<path d="M268.037 99.4996H267.827L267.751 99.4223C268.011 99.0619 268.153 98.6078 268.153 98.139C268.15 97.7541 268.049 97.3788 267.861 97.0603C267.674 96.7419 267.409 96.4946 267.1 96.3496C266.791 96.2047 266.451 96.1686 266.124 96.246C265.797 96.3233 265.498 96.5106 265.263 96.7841C265.028 97.0577 264.869 97.4053 264.805 97.7832C264.742 98.161 264.777 98.5521 264.906 98.9071C265.035 99.262 265.252 99.565 265.53 99.7778C265.808 99.9906 266.134 100.104 266.468 100.103C266.875 100.101 267.269 99.935 267.581 99.6336L267.657 99.7109V99.9531L268.966 101.463L269.355 101.01L268.037 99.4996ZM266.468 99.4996C266.235 99.5006 266.006 99.4217 265.811 99.2728C265.617 99.1239 265.465 98.9118 265.375 98.6632C265.285 98.4147 265.261 98.141 265.306 97.8767C265.351 97.6124 265.463 97.3695 265.628 97.1787C265.793 96.9879 266.003 96.8578 266.232 96.8049C266.461 96.7519 266.698 96.7786 266.914 96.8814C267.13 96.9842 267.314 97.1586 267.444 97.3825C267.574 97.6064 267.643 97.8696 267.643 98.139C267.644 98.3176 267.615 98.4947 267.556 98.6601C267.498 98.8254 267.411 98.9757 267.302 99.1023C267.193 99.2288 267.063 99.3291 266.92 99.3973C266.776 99.4655 266.623 99.5003 266.468 99.4996V99.4996Z" fill="#3F3D56"/>
<path opacity="0.8" d="M91.1306 101.035C92.0807 101.035 92.851 100.147 92.851 99.0512C92.851 97.9553 92.0807 97.067 91.1306 97.067C90.1804 97.067 89.4102 97.9553 89.4102 99.0512C89.4102 100.147 90.1804 101.035 91.1306 101.035Z" fill="#FA5959"/>
<path opacity="0.8" d="M95.8628 101.035C96.813 101.035 97.5832 100.147 97.5832 99.0512C97.5832 97.9553 96.813 97.067 95.8628 97.067C94.9127 97.067 94.1424 97.9553 94.1424 99.0512C94.1424 100.147 94.9127 101.035 95.8628 101.035Z" fill="#FED253"/>
<path opacity="0.8" d="M100.599 101.035C101.55 101.035 102.32 100.147 102.32 99.0512C102.32 97.9553 101.55 97.067 100.599 97.067C99.6493 97.067 98.8791 97.9553 98.8791 99.0512C98.8791 100.147 99.6493 101.035 100.599 101.035Z" fill="#8CCF4D"/>
<path d="M243.451 173.185C239.549 167.207 233.897 163.434 227.605 163.434C221.313 163.434 215.661 167.207 211.759 173.185C212.622 175.625 213.898 177.842 215.513 179.705C217.509 182.006 219.967 183.701 222.669 184.641C225.371 185.58 228.232 185.734 230.998 185.088C233.764 184.443 236.348 183.018 238.521 180.941C240.694 178.864 242.387 176.2 243.451 173.185V173.185Z" fill="#C1C0C5"/>
<path d="M208.913 176.169C209.158 176.374 209.422 176.547 209.699 176.685C212.693 183.668 218.896 189.013 226.014 189.461V222.575C220.63 222.204 216.317 219.076 212.693 214.195C212.381 214.468 212.148 214.715 211.934 214.947C211.633 215.276 211.423 215.7 211.33 216.165C211.237 216.631 211.265 217.118 211.411 217.566C211.608 218.182 211.659 218.847 211.559 219.493C211.459 220.139 211.212 220.743 210.843 221.243C210.474 221.743 209.996 222.12 209.459 222.337C208.922 222.554 208.344 222.602 207.786 222.476C207.227 222.35 206.708 222.056 206.281 221.622C205.853 221.188 205.534 220.632 205.355 220.008C205.176 219.385 205.143 218.719 205.261 218.076C205.379 217.434 205.643 216.84 206.026 216.354C206.141 216.208 206.267 216.074 206.402 215.952C206.479 215.871 206.565 215.8 206.656 215.741C207.148 213.69 208.314 211.84 210.209 210.144C208.076 205.941 206.772 201.248 206.388 196.398C206.112 196.401 205.836 196.422 205.562 196.46C205.189 196.518 204.837 196.693 204.545 196.965C204.252 197.238 204.031 197.598 203.904 198.006C203.697 198.639 203.345 199.195 202.884 199.614C202.424 200.032 201.872 200.297 201.291 200.38C200.709 200.463 200.118 200.361 199.583 200.084C199.048 199.808 198.589 199.368 198.255 198.812C197.921 198.256 197.726 197.605 197.69 196.93C197.653 196.255 197.778 195.582 198.05 194.983C198.322 194.384 198.732 193.882 199.233 193.532C199.735 193.182 200.31 192.997 200.896 192.997C201.026 192.999 201.156 193.01 201.285 193.028C201.765 192.629 202.298 192.323 202.863 192.121C203.965 191.723 205.112 191.509 206.268 191.487C206.382 188.048 206.945 184.65 207.939 181.406C207.217 180.932 206.536 180.38 205.906 179.756C205.291 179.123 204.788 178.361 204.422 177.509C204.228 177.079 203.932 176.721 203.569 176.479C203.289 176.284 203.033 176.047 202.809 175.772C202.412 175.278 202.139 174.669 202.02 174.009C201.901 173.35 201.941 172.665 202.134 172.03C202.328 171.394 202.668 170.831 203.119 170.402C203.569 169.973 204.112 169.695 204.69 169.596C205.268 169.497 205.858 169.581 206.397 169.841C206.936 170.1 207.404 170.525 207.749 171.068C208.094 171.611 208.304 172.253 208.357 172.924C208.409 173.595 208.302 174.27 208.046 174.876C208.246 175.377 208.543 175.819 208.913 176.169Z" fill="#C1C0C5"/>
<path d="M324.309 407.08C324.05 406.605 323.722 406.185 323.339 405.838C321.387 403.71 320.48 400.586 319.997 397.525C319.514 394.463 319.376 391.34 318.603 388.346C318.182 386.81 317.656 385.316 317.03 383.877C316.583 382.774 316.02 380.615 315.202 379.842C315.042 379.682 314.848 379.573 314.639 379.527C314.253 378.58 313.702 377.735 313.022 377.043C311.744 375.708 310.184 374.647 309.331 372.92C309.096 372.321 308.807 371.753 308.468 371.224C307.892 370.493 306.98 370.194 306.448 369.421C305.756 368.421 305.912 366.988 306.001 365.715C306.091 364.442 306.001 362.916 305.045 362.246C304.473 361.839 303.736 361.88 303.142 361.52C302.248 361.004 301.895 359.705 301.913 358.546C301.931 357.386 302.243 356.257 302.324 355.098C302.574 351.408 300.465 347.738 301.278 344.161C301.587 342.806 302.293 341.631 302.815 340.368C302.998 339.948 303.147 339.51 303.262 339.059C304.656 339.696 306.122 340.104 307.615 340.27C305.152 333.9 305.778 326.499 304.63 319.654L304.777 319.422C305.937 317.658 306.596 315.523 306.663 313.31C306.663 310.764 305.631 308.383 305.166 305.888C304.768 303.77 304.786 301.554 304.272 299.472C303.916 298.178 303.442 296.93 302.86 295.75C302.303 294.558 301.718 293.385 301.104 292.23C300.532 290.045 299.958 287.86 299.384 285.675C298.579 282.608 297.752 279.49 296.188 276.841C295.616 275.872 295.442 273.903 294.562 273.315C293.847 272.889 293.036 272.725 292.238 272.846C290.996 272.042 289.906 270.883 289.749 269.295C289.734 268.949 289.764 268.601 289.839 268.265H289.991C291.957 268.058 292.953 266.059 293.977 264.306C295.63 261.472 295 257.637 293.977 254.411C293.723 253.393 293.263 252.458 292.636 251.684C291.202 250.138 288.932 250.478 287.082 249.731C286.46 249.484 285.88 249.108 285.245 248.932C284.016 248.602 282.729 249.066 281.603 249.721C280.477 250.375 279.427 251.221 278.247 251.736C277.068 252.251 275.611 252.659 275.32 254.055C275.239 254.526 275.273 255.013 275.419 255.462C275.69 256.358 276.167 257.153 276.799 257.761C276.297 258.955 276.025 260.261 276.003 261.589C275.981 262.916 276.208 264.233 276.67 265.449C277.132 266.665 277.817 267.751 278.678 268.632C279.539 269.513 280.555 270.169 281.657 270.553C281.996 271.182 282.314 271.821 282.604 272.475C283.122 273.63 283.56 274.99 283.382 276.227C283.058 276.624 282.76 277.046 282.488 277.49C281.205 279.552 280.477 281.969 279.807 284.381C278.906 287.461 278.185 290.606 277.648 293.797C276.558 296.472 275.226 299.028 274.436 301.837C273.019 301.839 271.609 301.621 270.244 301.188L266.473 300.203C265.159 299.858 263.791 299.487 262.764 298.487C262.218 297.972 261.794 297.286 261.24 296.776C260.686 296.266 259.573 295.668 258.965 296.091C258.854 296.168 258.751 296.26 258.657 296.364C258.103 295.07 257.576 293.787 256.932 292.534C256.007 290.782 254.631 289.179 252.888 288.844C251.823 288.647 250.734 288.939 249.854 289.659C248.835 290.493 248.196 292.236 248.96 293.411C249.151 293.672 249.359 293.917 249.581 294.142C250.099 294.83 250.561 295.57 250.962 296.353C252.403 298.685 254.557 300.299 256.99 300.868L256.834 301.384C256.517 302.456 255.842 303.749 256.012 304.863L272.787 311.485C273.863 311.989 275.005 312.28 276.165 312.346C276.617 312.342 277.068 312.272 277.505 312.14V313.129V313.171C277.55 319.969 276.612 326.72 276.437 333.513C276.406 334.755 276.437 336.09 277.117 337.059C277.876 338.121 279.226 338.332 280.401 338.09C280.684 338.035 280.961 337.963 281.232 337.873C281.63 339.583 281.916 341.325 282.09 343.084L283.198 352.289C283.341 353.231 283.399 354.188 283.373 355.144C283.243 357.304 282.256 359.236 281.541 361.231C280.826 363.226 280.401 365.612 281.339 367.477C281.634 368.055 282.041 368.544 282.305 369.142C282.64 370.068 282.792 371.068 282.752 372.07C282.82 374.846 282.886 377.626 282.948 380.409C282.753 380.372 282.553 380.418 282.385 380.538C281.456 381.372 281.558 385.346 281.491 386.578C281.42 388.64 281.491 390.742 281.393 392.824C281.277 395.631 280.886 398.413 280.227 401.117C280.066 401.996 279.714 402.814 279.203 403.493C278.681 404.017 278.057 404.39 277.385 404.581C275.158 405.385 272.83 405.751 270.499 405.663C269.556 405.627 268.573 405.524 267.697 405.936C266.821 406.348 266.115 407.482 266.432 408.513C266.705 409.379 267.532 409.791 268.278 410.116C269.983 410.808 271.628 411.681 273.193 412.724C273.796 413.197 274.431 413.613 275.092 413.966C275.726 414.229 276.382 414.415 277.05 414.522L284.972 416.1C286.594 416.419 288.547 416.615 289.579 415.069C290.138 414.234 290.218 413.1 290.192 412.038C290.147 409.977 289.79 407.879 290.022 405.817C290.198 404.599 290.477 403.403 290.853 402.246C291.642 399.542 292.435 396.839 293.23 394.139C294.026 391.428 294.83 388.691 295.138 385.846C295.25 384.815 295.241 383.64 294.557 382.996C294.385 382.832 294.183 382.713 293.968 382.645C293.941 380.161 293.659 377.672 293.78 375.188C293.811 374.569 293.865 373.951 293.91 373.327C294.324 373.781 294.694 374.286 295.013 374.832C295.777 376.213 296.059 378.038 297.225 378.955C298.217 379.739 299.687 379.697 300.384 380.831C300.608 381.267 300.777 381.737 300.885 382.228C301.29 383.443 301.897 384.555 302.672 385.501C302.939 386.632 303.309 387.727 303.776 388.768C304.434 390.373 305.09 391.972 305.742 393.567C306.413 395.287 307.159 396.968 307.977 398.602C308.601 399.631 309.104 400.75 309.474 401.931C310.104 404.477 309.076 407.271 307.449 409.147C305.823 411.023 303.678 412.1 301.564 413.105C301.341 413.192 301.137 413.333 300.965 413.517C300.782 413.768 300.685 414.087 300.693 414.414C300.693 415.605 301.542 416.625 302.516 416.991C303.512 417.3 304.555 417.344 305.568 417.12C311.279 416.321 316.972 414.713 322.021 411.513C322.777 411.1 323.446 410.504 323.983 409.765C324.242 409.393 324.41 408.947 324.467 408.475C324.525 408.002 324.47 407.52 324.309 407.08V407.08Z" fill="url(#paint0_linear_0_1)"/>
<path d="M300.174 291.504C301.128 293.191 302.021 294.919 302.856 296.688C303.44 297.859 303.915 299.098 304.272 300.384C304.791 302.445 304.777 304.646 305.166 306.749C305.613 309.223 306.658 311.583 306.658 314.119C306.59 316.316 305.931 318.434 304.773 320.18C303.617 321.911 302.295 323.484 300.831 324.87C297.457 314.788 295.572 304.124 295.255 293.323C295.21 291.828 295.201 290.287 295.675 288.891C295.965 288.014 297.359 285.613 298.257 286.556C298.584 286.901 298.669 288.458 298.87 288.978C299.246 289.858 299.683 290.703 300.174 291.504V291.504Z" fill="#2F2E41"/>
<path opacity="0.1" d="M300.174 291.504C301.128 293.191 302.021 294.919 302.856 296.688C303.44 297.859 303.915 299.098 304.272 300.384C304.791 302.445 304.777 304.646 305.166 306.749C305.613 309.223 306.658 311.583 306.658 314.119C306.59 316.316 305.931 318.434 304.773 320.18C303.617 321.911 302.295 323.484 300.831 324.87C297.457 314.788 295.572 304.124 295.255 293.323C295.21 291.828 295.201 290.287 295.675 288.891C295.965 288.014 297.359 285.613 298.257 286.556C298.584 286.901 298.669 288.458 298.87 288.978C299.246 289.858 299.683 290.703 300.174 291.504V291.504Z" fill="black"/>
<path d="M182.365 221.189C178.831 225.26 178.406 227.054 176.284 227.863C174.161 228.672 166.524 233.233 168.924 238.289L175.376 243.206L175.564 243.351L176.552 246.773L166.792 266.811C166.792 266.811 150.705 258.328 149.128 270.878C147.551 283.427 148.552 286.855 148.127 293.555C147.703 300.255 148.266 302.193 146.849 302.193C145.433 302.193 144.874 297.791 144.874 297.791C144.874 297.791 144.785 297.59 144.628 297.214C142.524 292.169 128.238 255.127 151.121 229.667C151.121 229.667 161.721 228.863 164.272 214.844C166.033 205.155 172.19 205.99 176.284 207.964C177.614 208.565 178.854 209.406 179.957 210.453C180.949 211.537 181.832 212.747 182.589 214.061C183.755 216.184 184.39 218.849 182.365 221.189Z" fill="#D0D2D5"/>
<path opacity="0.1" d="M175.564 243.351L176.552 246.773L166.792 266.811C166.792 266.811 150.705 258.328 149.128 270.878C147.551 283.427 148.552 286.855 148.127 293.555C147.703 300.255 148.266 302.193 146.849 302.193C145.433 302.193 144.874 297.791 144.874 297.791C144.874 297.791 144.785 297.59 144.628 297.214C143.918 290.947 140.316 254.287 153.373 256.235C153.373 256.235 163.968 261.946 165.662 259.668C167.002 257.864 172.954 247.489 175.376 243.232L175.564 243.351Z" fill="black"/>
<path opacity="0.1" d="M182.589 214.03L176.136 222.488C176.136 222.488 168.642 234.053 167.087 233.563C166.622 233.446 166.147 233.382 165.671 233.373C165.152 233.327 164.655 233.112 164.238 232.754C163.82 232.396 163.499 231.909 163.312 231.349C163.125 230.789 163.08 230.179 163.181 229.591C163.282 229.002 163.525 228.458 163.883 228.023C166.439 224.93 171.149 219.06 171.457 217.756C171.766 216.452 174.764 210.737 176.266 207.938C177.596 208.54 178.836 209.38 179.939 210.427C180.938 211.509 181.827 212.717 182.589 214.03V214.03Z" fill="black"/>
<path d="M365.156 335.709C364.062 338.234 358.453 347.707 356 351.846L354.852 353.794C354.852 353.794 354.405 357.216 347.081 352.974C339.757 348.733 167.677 264.987 167.677 264.987L166.511 260.946L175.001 246.283L363.606 330.328C363.606 330.328 366.573 332.446 365.156 335.709Z" fill="#C1C0C5"/>
<path opacity="0.1" d="M356 351.846L354.852 353.794C354.852 353.794 354.405 357.216 347.081 352.974C339.757 348.733 167.677 264.987 167.677 264.987L166.511 260.946L356 351.846Z" fill="black"/>
<path d="M252.204 297.142C250.457 296.812 248.518 296.972 247.159 298.281C246.338 299.083 245.819 300.221 245.712 301.456C245.595 302.884 246.315 304.579 247.557 304.687C247.856 304.691 248.155 304.669 248.451 304.62C249.236 304.616 250.019 304.692 250.792 304.847C252.314 305.012 253.848 304.754 255.266 304.094C256.683 303.434 257.943 302.391 258.939 301.054C260.007 299.508 258.599 298.838 257.339 298.528C255.614 298.106 253.929 297.462 252.204 297.142Z" fill="#FBBEBE"/>
<path d="M282.09 343.687L283.198 352.768C283.339 353.706 283.396 354.657 283.368 355.608C283.239 357.747 282.251 359.664 281.541 361.643C280.83 363.622 280.397 365.993 281.339 367.828C281.63 368.4 282.037 368.89 282.3 369.482C282.635 370.399 282.788 371.39 282.747 372.384L283.051 385.269C286.5 385.54 289.962 385.518 293.409 385.202C293.544 385.209 293.677 385.162 293.784 385.068C293.875 384.935 293.921 384.768 293.914 384.599C294.066 381.584 293.61 378.564 293.758 375.549C293.811 374.446 293.945 373.348 293.963 372.24C294.017 367.751 292.095 363.354 292.676 358.917C292.859 357.797 293.097 356.691 293.391 355.603C295.228 347.872 294.839 339.749 294.432 331.766C294.439 331.638 294.408 331.51 294.343 331.405C294.277 331.329 294.193 331.277 294.102 331.256C292.147 330.579 290.079 330.456 288.074 330.895C286.069 331.335 284.185 332.325 282.582 333.781C282.095 334.235 280.866 334.673 280.544 335.214C280.097 335.966 280.683 336.719 280.942 337.518C281.516 339.521 281.901 341.589 282.09 343.687V343.687Z" fill="#3F3D56"/>
<path opacity="0.1" d="M282.09 343.687L283.198 352.768C283.339 353.706 283.396 354.657 283.368 355.608C283.239 357.747 282.251 359.664 281.541 361.643C280.83 363.622 280.397 365.993 281.339 367.828C281.63 368.4 282.037 368.89 282.3 369.482C282.635 370.399 282.788 371.39 282.747 372.384L283.051 385.269C286.5 385.54 289.962 385.518 293.409 385.202C293.544 385.209 293.677 385.162 293.784 385.068C293.875 384.935 293.921 384.768 293.914 384.599C294.066 381.584 293.61 378.564 293.758 375.549C293.811 374.446 293.945 373.348 293.963 372.24C294.017 367.751 292.095 363.354 292.676 358.917C292.859 357.797 293.097 356.691 293.391 355.603C295.228 347.872 294.839 339.749 294.432 331.766C294.439 331.638 294.408 331.51 294.343 331.405C294.277 331.329 294.193 331.277 294.102 331.256C292.147 330.579 290.079 330.456 288.074 330.895C286.069 331.335 284.185 332.325 282.582 333.781C282.095 334.235 280.866 334.673 280.544 335.214C280.097 335.966 280.683 336.719 280.942 337.518C281.516 339.521 281.901 341.589 282.09 343.687V343.687Z" fill="black"/>
<path d="M302.811 340.95C302.288 342.203 301.586 343.368 301.274 344.713C300.46 348.264 302.565 351.928 302.315 355.567C302.234 356.716 301.926 357.835 301.904 358.984C301.881 360.133 302.248 361.411 303.133 361.942C303.727 362.293 304.473 362.257 305.032 362.659C305.975 363.323 306.082 364.834 305.988 366.101C305.894 367.369 305.738 368.787 306.435 369.776C306.967 370.544 307.878 370.843 308.45 371.57C308.79 372.091 309.08 372.655 309.313 373.25C310.166 374.971 311.726 376.023 313.004 377.373C314.282 378.723 315.363 380.702 314.791 382.573C314.371 383.944 313.191 384.79 312.056 385.434C309.985 386.614 307.8 387.505 305.546 388.088C305.304 388.172 305.048 388.188 304.799 388.134C304.548 388.029 304.323 387.851 304.147 387.619C302.829 386.13 301.466 384.568 300.858 382.563C300.75 382.077 300.581 381.612 300.358 381.182C299.661 380.053 298.19 380.094 297.198 379.316C296.037 378.404 295.755 376.595 294.995 375.229C294.236 373.863 293.123 373.049 292.314 371.848C290.947 369.848 290.612 367.179 289.633 364.895C289.218 363.927 288.686 363.019 288.355 362.009C288.021 360.798 287.816 359.546 287.743 358.278C287.113 352.258 285.509 346.197 286.519 340.239C286.742 338.93 287.086 337.662 287.229 336.312C287.475 333.977 287.086 331.586 287.385 329.256C287.393 328.964 287.457 328.677 287.574 328.417C287.691 328.157 287.857 327.932 288.06 327.756C288.302 327.631 288.564 327.57 288.829 327.576C291.478 327.413 294.134 327.482 296.774 327.782C298.114 327.932 299.616 328.246 300.42 329.509C301.104 330.591 301.068 332.039 301.287 333.353C301.56 334.972 302.27 335.853 303.016 337.121C303.763 338.389 303.36 339.641 302.811 340.95Z" fill="#3F3D56"/>
<path d="M292.502 382.831C293.208 382.831 293.99 382.78 294.535 383.295C295.214 383.939 295.223 385.119 295.116 386.124C294.803 388.949 294.003 391.665 293.203 394.371L290.826 402.416C290.45 403.564 290.172 404.752 289.995 405.962C289.763 408.023 290.12 410.085 290.165 412.147C290.165 413.177 290.107 414.321 289.548 415.151C288.538 416.651 286.568 416.476 284.946 416.182L277.032 414.636C276.364 414.533 275.708 414.348 275.075 414.084C274.414 413.733 273.779 413.321 273.175 412.853C271.609 411.821 269.964 410.958 268.26 410.276C267.518 409.956 266.687 409.549 266.419 408.688C266.102 407.657 266.808 406.524 267.684 406.111C268.559 405.699 269.538 405.802 270.485 405.833C272.815 405.919 275.14 405.556 277.367 404.761C278.038 404.571 278.659 404.2 279.181 403.679C279.711 402.992 280.072 402.153 280.227 401.251C280.901 398.565 281.303 395.798 281.424 393.005C281.518 390.943 281.456 388.882 281.527 386.82C281.572 385.599 281.469 381.666 282.398 380.826C283.109 380.197 286.031 381.934 286.992 382.187C288.798 382.664 290.649 382.881 292.502 382.831V382.831Z" fill="#2F2E41"/>
<path d="M318.572 388.562C319.345 391.515 319.465 394.639 319.966 397.674C320.466 400.71 321.351 403.807 323.304 405.921C323.684 406.269 324.011 406.687 324.273 407.158C324.438 407.599 324.494 408.084 324.435 408.56C324.376 409.035 324.204 409.483 323.938 409.853C323.399 410.586 322.73 411.178 321.977 411.59C316.932 414.765 311.252 416.368 305.528 417.161C304.516 417.38 303.475 417.336 302.48 417.032C301.506 416.651 300.644 415.641 300.662 414.455C300.652 414.13 300.748 413.813 300.93 413.564C301.104 413.38 301.309 413.242 301.533 413.157C303.642 412.157 305.783 411.069 307.414 409.224C309.045 407.379 310.068 404.586 309.438 402.081C309.065 400.908 308.558 399.797 307.932 398.777C307.115 397.157 306.369 395.49 305.698 393.783L303.731 389.026C303.155 387.635 302.574 386.202 302.476 384.666C304.946 384.793 307.412 384.337 309.724 383.326C310.803 382.818 311.808 382.123 312.704 381.264C313.464 380.532 314.157 379.167 315.18 380.12C316.002 380.883 316.521 383.032 317.003 384.12C317.63 385.549 318.155 387.034 318.572 388.562Z" fill="#2F2E41"/>
<path d="M289.758 270.44C289.955 272.419 291.617 273.723 293.203 274.506L283.163 278.201C283.811 276.769 283.288 275.016 282.644 273.563C282.12 272.412 281.523 271.308 280.857 270.259C280.759 270.099 280.647 269.898 280.718 269.713C280.782 269.592 280.882 269.502 281 269.46C283.064 268.399 285.191 267.301 287.448 266.914C288.1 266.806 289.334 266.507 289.821 267.27C290.308 268.033 289.664 269.527 289.758 270.44Z" fill="#FBBEBE"/>
<path opacity="0.1" d="M289.758 270.44C289.955 272.419 291.617 273.723 293.203 274.506L283.163 278.201C283.811 276.769 283.288 275.016 282.644 273.563C282.12 272.412 281.523 271.308 280.857 270.259C280.759 270.099 280.647 269.898 280.718 269.713C280.782 269.592 280.882 269.502 281 269.46C283.064 268.399 285.191 267.301 287.448 266.914C288.1 266.806 289.334 266.507 289.821 267.27C290.308 268.033 289.664 269.527 289.758 270.44Z" fill="black"/>
<path d="M283.922 272.042C288.271 272.042 291.796 267.977 291.796 262.961C291.796 257.946 288.271 253.88 283.922 253.88C279.574 253.88 276.049 257.946 276.049 262.961C276.049 267.977 279.574 272.042 283.922 272.042Z" fill="#FBBEBE"/>
<path d="M277.099 337.693C277.863 338.75 279.208 338.956 280.383 338.724C283.131 338.208 285.379 335.874 288.069 335.034C291.367 334.003 294.857 335.327 297.971 336.951C301.086 338.574 304.183 340.559 307.588 340.837C304.509 332.921 306.27 323.396 303.325 315.413C302.605 313.459 301.6 311.578 301.439 309.465C301.238 306.842 302.373 304.311 302.547 301.703C302.708 299.379 302.1 297.065 301.519 294.849C300.802 292.127 300.084 289.406 299.366 286.685C298.561 283.639 297.735 280.541 296.175 277.923C295.599 276.959 295.424 275.006 294.548 274.424C292.636 273.151 289.736 274.753 287.662 274.841C285.589 274.929 283.699 276.629 282.488 278.552C281.205 280.583 280.477 283 279.807 285.391C278.739 288.952 277.943 292.613 277.425 296.333C277.358 296.889 277.3 297.446 277.255 298.008C276.808 303.301 277.461 308.625 277.497 313.944V313.98C277.541 320.726 276.603 327.432 276.429 334.173C276.411 335.405 276.437 336.75 277.099 337.693Z" fill="#2F2E41"/>
<path opacity="0.1" d="M277.51 313.949C279.052 313.501 280.446 312.351 281.643 311.094C282.681 310.023 283.602 308.812 284.387 307.486C285.376 305.704 286.17 303.787 286.751 301.781C288.405 296.414 289.457 290.824 289.879 285.149C289.995 283.603 290.031 281.943 289.231 280.717C288.782 280.052 288.151 279.582 287.441 279.384C286.731 279.186 285.984 279.27 285.321 279.624C284.266 280.217 283.583 281.417 282.948 282.567C281.693 284.845 280.428 287.154 279.619 289.689C279.262 290.813 278.998 291.968 278.649 293.096C278.295 294.209 277.886 295.299 277.425 296.359C277.358 296.915 277.3 297.472 277.255 298.034C276.84 303.327 277.474 308.63 277.51 313.949Z" fill="black"/>
<path d="M289.209 279.722C290.008 280.948 289.973 282.623 289.861 284.149C289.44 289.824 288.388 295.414 286.733 300.781C286.157 302.804 285.363 304.737 284.369 306.532C283.583 307.857 282.661 309.068 281.625 310.14C280.106 311.738 278.256 313.166 276.196 313.186C275.037 313.123 273.895 312.836 272.818 312.336L256.038 305.749C255.869 304.646 256.543 303.358 256.861 302.296L257.754 299.24C258.009 298.394 258.304 297.482 258.97 297.024C259.636 296.565 260.69 297.194 261.244 297.704C261.798 298.214 262.218 298.884 262.764 299.405C263.796 300.394 265.159 300.765 266.473 301.105L270.24 302.08C271.605 302.511 273.015 302.728 274.431 302.724C275.481 299.023 277.479 295.766 278.609 292.096C278.958 290.973 279.221 289.813 279.583 288.69C280.388 286.154 281.657 283.85 282.912 281.567C283.542 280.423 284.226 279.222 285.285 278.624C285.95 278.266 286.701 278.18 287.414 278.379C288.127 278.579 288.76 279.052 289.209 279.722V279.722Z" fill="#2F2E41"/>
<path d="M286.434 265.013C286.374 264.415 286.213 263.837 285.96 263.312C285.828 263.049 285.627 262.841 285.386 262.718C285.145 262.596 284.877 262.566 284.619 262.631C283.833 262.915 283.569 264.317 282.747 264.363C282.193 264.394 281.795 263.745 281.621 263.137C281.447 262.528 281.353 261.833 280.937 261.405C280.648 261.155 280.316 260.98 279.963 260.889C278.055 260.194 276.084 258.91 275.45 256.72C275.301 256.275 275.265 255.79 275.347 255.323C275.638 253.937 277.135 253.519 278.274 253.019C279.414 252.519 280.508 251.664 281.625 251.014C282.743 250.365 284.038 249.906 285.267 250.236C285.891 250.462 286.504 250.726 287.104 251.025C288.954 251.767 291.219 251.422 292.654 252.963C293.281 253.727 293.74 254.653 293.994 255.663C294.995 258.869 295.63 262.673 293.972 265.487C292.949 267.224 291.957 269.208 289.991 269.419C287.703 269.641 286.796 267.249 286.434 265.013Z" fill="#2F2E41"/>
<g opacity="0.1">
<path opacity="0.1" d="M282.939 262.044C282.765 261.436 282.671 260.74 282.26 260.312C281.971 260.063 281.639 259.887 281.286 259.797C279.373 259.101 277.407 257.818 276.768 255.627C276.622 255.181 276.588 254.698 276.67 254.231C276.714 254.01 276.794 253.802 276.907 253.617C276.178 253.983 275.544 254.468 275.365 255.323C275.283 255.79 275.318 256.275 275.468 256.72C276.102 258.91 278.073 260.194 279.981 260.889C280.334 260.98 280.666 261.155 280.955 261.405C281.371 261.833 281.46 262.523 281.639 263.136C281.818 263.75 282.211 264.394 282.765 264.363C283.319 264.332 283.587 263.75 283.94 263.26C283.453 263.188 283.1 262.611 282.939 262.044Z" fill="black"/>
<path opacity="0.1" d="M291.304 268.311C289.008 268.553 288.1 266.141 287.73 263.92C287.68 263.324 287.529 262.746 287.283 262.219C287.151 261.956 286.949 261.749 286.709 261.627C286.468 261.505 286.199 261.474 285.942 261.539C285.534 261.767 285.192 262.124 284.955 262.57C285.16 262.592 285.357 262.669 285.533 262.794C285.708 262.919 285.856 263.089 285.964 263.291C286.218 263.817 286.379 264.395 286.438 264.992C286.8 267.213 287.707 269.63 290.013 269.383C290.924 269.267 291.766 268.764 292.372 267.971C292.035 268.152 291.674 268.267 291.304 268.311V268.311Z" fill="black"/>
</g>
</g>
<defs>
<linearGradient id="paint0_linear_0_1" x1="288.955" y1="417.969" x2="281.091" y2="248.947" gradientUnits="userSpaceOnUse">
<stop stop-color="#808080" stop-opacity="0.25"/>
<stop offset="0.54" stop-color="#808080" stop-opacity="0.12"/>
<stop offset="1" stop-color="#808080" stop-opacity="0.1"/>
</linearGradient>
<clipPath id="clip0_0_1">
<rect width="452" height="450" fill="white"/>
</clipPath>
</defs>
</svg>
