<?xml version="1.0" encoding="UTF-8"?>
<svg xmlns="http://www.w3.org/2000/svg" xmlns:xlink="http://www.w3.org/1999/xlink" width="375pt" height="374.999991pt" viewBox="0 0 375 374.999991" version="1.2">
<defs>
<clipPath id="clip1">
  <path d="M 124.539062 161 L 274.539062 161 L 274.539062 245.863281 L 124.539062 245.863281 Z M 124.539062 161 "/>
</clipPath>
<clipPath id="clip2">
  <path d="M 124.539062 161 L 189 161 L 189 243 L 124.539062 243 Z M 124.539062 161 "/>
</clipPath>
<clipPath id="clip3">
  <path d="M 125 113.863281 L 274 113.863281 L 274 163 L 125 163 Z M 125 113.863281 "/>
</clipPath>
<clipPath id="clip4">
  <path d="M 125 113.863281 L 200 113.863281 L 200 163 L 125 163 Z M 125 113.863281 "/>
</clipPath>
<clipPath id="clip5">
  <path d="M 210 161 L 274.539062 161 L 274.539062 243 L 210 243 Z M 210 161 "/>
</clipPath>
<clipPath id="clip6">
  <path d="M 125 161 L 274.539062 161 L 274.539062 210 L 125 210 Z M 125 161 "/>
</clipPath>
<clipPath id="clip7">
  <path d="M 124.539062 202 L 274.539062 202 L 274.539062 245.863281 L 124.539062 245.863281 Z M 124.539062 202 "/>
</clipPath>
</defs>
<g id="surface1">
<g clip-path="url(#clip1)" clip-rule="nonzero">
<path style=" stroke:none;fill-rule:evenodd;fill:rgb(95.689392%,44.709778%,8.628845%);fill-opacity:1;" d="M 270.382812 161.371094 L 128.695312 161.371094 C 126.410156 161.371094 124.542969 163.035156 124.542969 165.0625 L 124.542969 242.566406 C 124.542969 244.597656 126.410156 246.261719 128.695312 246.261719 L 270.382812 246.261719 C 272.671875 246.261719 274.539062 244.597656 274.539062 242.566406 L 274.539062 165.0625 C 274.539062 163.035156 272.671875 161.371094 270.382812 161.371094 "/>
</g>
<g clip-path="url(#clip2)" clip-rule="nonzero">
<path style=" stroke:none;fill-rule:evenodd;fill:rgb(89.408875%,37.649536%,12.548828%);fill-opacity:1;" d="M 124.542969 242.566406 L 178.316406 202.09375 L 124.542969 165.0625 C 124.542969 163.6875 125.402344 162.480469 126.667969 161.847656 L 126.730469 161.871094 C 126.066406 162.234375 125.511719 162.769531 125.128906 163.417969 L 188.699219 202.820312 L 124.542969 242.566406 "/>
</g>
<g clip-path="url(#clip3)" clip-rule="nonzero">
<path style=" stroke:none;fill-rule:evenodd;fill:rgb(95.689392%,44.709778%,8.628845%);fill-opacity:1;" d="M 199.308594 113.875 C 192.335938 118.195312 129.5625 156.5625 125.355469 162.882812 C 126.113281 161.976562 127.300781 161.414062 128.554688 161.375 L 128.625 161.371094 L 270.453125 161.371094 L 270.527344 161.375 C 271.78125 161.414062 272.972656 161.976562 273.730469 162.882812 C 269.523438 156.5625 206.75 118.195312 199.773438 113.875 L 199.308594 113.875 "/>
</g>
<g clip-path="url(#clip4)" clip-rule="nonzero">
<path style=" stroke:none;fill-rule:evenodd;fill:rgb(89.408875%,37.649536%,12.548828%);fill-opacity:1;" d="M 199.308594 113.875 C 192.335938 118.195312 129.5625 156.5625 125.355469 162.882812 C 126.113281 161.976562 127.300781 161.414062 128.554688 161.375 L 128.695312 161.371094 L 172.867188 161.371094 C 146.511719 155.734375 199.308594 113.875 199.308594 113.875 "/>
</g>
<g clip-path="url(#clip5)" clip-rule="nonzero">
<path style=" stroke:none;fill-rule:evenodd;fill:rgb(89.408875%,37.649536%,12.548828%);fill-opacity:1;" d="M 274.539062 242.566406 L 220.523438 202.09375 L 274.539062 165.0625 C 274.539062 163.6875 273.679688 162.480469 272.417969 161.847656 L 272.351562 161.871094 C 273.015625 162.234375 273.570312 162.769531 273.953125 163.417969 L 210.382812 202.820312 L 274.539062 242.566406 "/>
</g>
<g clip-path="url(#clip6)" clip-rule="nonzero">
<path style=" stroke:none;fill-rule:evenodd;fill:rgb(95.689392%,95.689392%,95.689392%);fill-opacity:1;" d="M 270.382812 161.371094 L 128.695312 161.371094 C 127.183594 161.371094 125.738281 162.136719 125.011719 163.363281 L 199.308594 209.390625 L 199.773438 209.390625 L 274.066406 163.363281 C 273.347656 162.136719 271.898438 161.371094 270.382812 161.371094 "/>
</g>
<g clip-path="url(#clip7)" clip-rule="nonzero">
<path style=" stroke:none;fill-rule:evenodd;fill:rgb(95.689392%,44.709778%,8.628845%);fill-opacity:1;" d="M 199.542969 246.261719 L 128.695312 246.261719 C 126.410156 246.261719 124.542969 244.597656 124.542969 242.566406 L 188.699219 202.820312 L 199.308594 209.390625 L 199.773438 209.390625 L 210.382812 202.820312 L 274.539062 242.566406 C 274.539062 244.597656 272.671875 246.261719 270.382812 246.261719 L 199.542969 246.261719 "/>
</g>
<path style=" stroke:none;fill-rule:nonzero;fill:rgb(20.779419%,27.839661%,39.99939%);fill-opacity:1;" d="M 206.921875 197.078125 C 206.050781 197.34375 205.132812 197.546875 204.179688 197.683594 C 203.226562 197.820312 202.261719 197.878906 201.269531 197.878906 C 199.253906 197.878906 197.394531 197.554688 195.695312 196.90625 C 194.011719 196.25 192.542969 195.304688 191.292969 194.0625 C 190.480469 193.25 189.785156 192.320312 189.207031 191.273438 C 189.015625 192.976562 188.875 194.714844 188.78125 196.480469 C 189.359375 197.023438 189.976562 197.523438 190.628906 197.972656 C 192.03125 198.941406 193.554688 199.679688 195.21875 200.183594 C 196.871094 200.691406 198.601562 200.949219 200.40625 200.949219 C 201.644531 200.949219 202.824219 200.882812 203.921875 200.746094 C 205.027344 200.609375 206.097656 200.390625 207.132812 200.085938 C 208.164062 199.78125 209.203125 199.378906 210.246094 198.867188 L 209.324219 196.074219 C 208.601562 196.480469 207.789062 196.816406 206.921875 197.078125 "/>
<path style=" stroke:none;fill-rule:nonzero;fill:rgb(20.779419%,27.839661%,39.99939%);fill-opacity:1;" d="M 205.304688 181.46875 C 205.164062 182.28125 204.917969 183.074219 204.566406 183.851562 C 204.207031 184.617188 203.78125 185.320312 203.277344 185.9375 C 202.78125 186.558594 202.222656 187.050781 201.617188 187.414062 C 201.019531 187.78125 200.394531 187.972656 199.746094 187.980469 C 199.078125 187.972656 198.519531 187.816406 198.0625 187.496094 C 197.609375 187.1875 197.273438 186.75 197.046875 186.183594 C 196.820312 185.621094 196.703125 184.960938 196.703125 184.207031 C 196.714844 183.03125 196.902344 181.929688 197.273438 180.886719 C 197.652344 179.839844 198.179688 178.921875 198.851562 178.113281 C 199.519531 177.304688 200.308594 176.675781 201.199219 176.210938 C 202.097656 175.757812 203.058594 175.519531 204.101562 175.507812 C 204.566406 175.507812 204.96875 175.546875 205.332031 175.609375 C 205.695312 175.671875 206.007812 175.742188 206.277344 175.835938 Z M 218.757812 172.355469 C 217.980469 170.441406 216.875 168.769531 215.445312 167.347656 C 214.011719 165.9375 212.316406 164.832031 210.339844 164.054688 C 208.359375 163.269531 206.179688 162.882812 203.777344 162.867188 C 201.351562 162.882812 199.109375 163.234375 197.046875 163.957031 C 196.40625 165.300781 195.792969 166.683594 195.207031 168.097656 C 196.1875 167.503906 197.222656 167.023438 198.328125 166.664062 C 199.90625 166.144531 201.558594 165.878906 203.28125 165.878906 C 205.402344 165.886719 207.261719 166.214844 208.878906 166.855469 C 210.503906 167.503906 211.867188 168.414062 212.976562 169.582031 C 214.082031 170.757812 214.914062 172.136719 215.488281 173.730469 C 216.0625 175.316406 216.34375 177.054688 216.34375 178.953125 C 216.332031 180.53125 216.167969 181.914062 215.832031 183.113281 C 215.507812 184.304688 215.070312 185.3125 214.527344 186.109375 C 213.984375 186.921875 213.386719 187.515625 212.738281 187.917969 C 212.089844 188.320312 211.449219 188.5 210.792969 188.476562 C 209.976562 188.480469 209.449219 188.046875 209.203125 187.167969 C 208.964844 186.292969 208.996094 184.9375 209.324219 183.113281 L 211.0625 173.101562 C 210.585938 172.863281 210.019531 172.644531 209.359375 172.464844 C 208.699219 172.273438 207.992188 172.117188 207.21875 172.007812 C 206.453125 171.894531 205.667969 171.84375 204.863281 171.84375 C 202.921875 171.863281 201.171875 172.207031 199.59375 172.910156 C 198.027344 173.601562 196.675781 174.550781 195.550781 175.742188 C 194.417969 176.949219 193.546875 178.316406 192.949219 179.847656 C 192.339844 181.386719 192.03125 183.003906 192.027344 184.699219 C 192.03125 186.164062 192.304688 187.414062 192.839844 188.453125 C 193.375 189.507812 194.09375 190.296875 194.996094 190.863281 C 195.902344 191.417969 196.929688 191.691406 198.0625 191.699219 C 199.589844 191.699219 200.957031 191.328125 202.179688 190.589844 C 203.394531 189.839844 204.457031 188.722656 205.351562 187.214844 L 205.511719 187.214844 C 205.558594 188.253906 205.777344 189.101562 206.179688 189.765625 C 206.566406 190.421875 207.09375 190.917969 207.734375 191.226562 C 208.386719 191.546875 209.117188 191.699219 209.921875 191.699219 C 211.308594 191.691406 212.597656 191.402344 213.804688 190.808594 C 215.007812 190.214844 216.066406 189.347656 216.984375 188.226562 C 217.898438 187.097656 218.621094 185.738281 219.144531 184.132812 C 219.660156 182.527344 219.921875 180.707031 219.929688 178.679688 C 219.921875 176.382812 219.535156 174.277344 218.757812 172.355469 "/>
<path style=" stroke:none;fill-rule:nonzero;fill:rgb(16.079712%,19.60907%,29.40979%);fill-opacity:1;" d="M 197 163.972656 C 194.925781 164.695312 193.070312 165.703125 191.429688 167.011719 C 189.785156 168.3125 188.378906 169.84375 187.21875 171.585938 C 186.066406 173.335938 185.179688 175.242188 184.570312 177.3125 C 183.960938 179.371094 183.65625 181.527344 183.648438 183.765625 C 183.65625 185.902344 183.945312 187.863281 184.527344 189.648438 C 185.109375 191.4375 185.914062 193.023438 186.957031 194.425781 C 187.515625 195.171875 188.121094 195.855469 188.78125 196.480469 C 188.875 194.714844 189.015625 192.976562 189.207031 191.273438 C 188.902344 190.714844 188.628906 190.125 188.386719 189.507812 C 187.703125 187.71875 187.355469 185.671875 187.34375 183.386719 C 187.355469 181.226562 187.625 179.238281 188.183594 177.421875 C 188.726562 175.609375 189.492188 173.996094 190.480469 172.5625 C 191.472656 171.140625 192.628906 169.925781 193.964844 168.933594 C 194.367188 168.632812 194.785156 168.351562 195.207031 168.097656 C 195.792969 166.683594 196.40625 165.300781 197.046875 163.957031 L 197 163.972656 "/>
</g>
</svg>
