<?xml version="1.0" encoding="UTF-8"?>
<svg xmlns="http://www.w3.org/2000/svg" xmlns:xlink="http://www.w3.org/1999/xlink" width="375pt" height="374.999991pt" viewBox="0 0 375 374.999991" version="1.2">
<defs>
<clipPath id="clip1">
  <path d="M 127.636719 112.5 L 247.636719 112.5 L 247.636719 262.5 L 127.636719 262.5 Z M 127.636719 112.5 "/>
</clipPath>
</defs>
<g id="surface1">
<path style=" stroke:none;fill-rule:nonzero;fill:rgb(9.799194%,68.238831%,100%);fill-opacity:1;" d="M 132.054688 116.882812 L 243.5 116.882812 L 243.5 258.117188 L 132.054688 258.117188 Z M 132.054688 116.882812 "/>
<g clip-path="url(#clip1)" clip-rule="nonzero">
<path style="fill:none;stroke-width:25;stroke-linecap:round;stroke-linejoin:round;stroke:rgb(17.649841%,17.649841%,17.649841%);stroke-opacity:1;stroke-miterlimit:4;" d="M 976.874055 -82.696259 L 1293.245067 -82.696259 L 1293.245067 320.125947 L 976.874055 320.125947 Z M 976.874055 -82.696259 " transform="matrix(0.352261,0,0,0.350612,-212.060386,145.877129)"/>
</g>
<path style=" stroke:none;fill-rule:nonzero;fill:rgb(25.099182%,25.099182%,25.099182%);fill-opacity:1;" d="M 142.964844 127.539062 L 178.582031 127.539062 L 178.582031 163.40625 L 142.964844 163.40625 Z M 142.964844 127.539062 "/>
<path style=" stroke:none;fill-rule:nonzero;fill:rgb(100%,39.99939%,0%);fill-opacity:1;" d="M 160.84375 151.132812 C 159.070312 151.136719 157.324219 151.414062 155.609375 151.96875 C 153.890625 152.523438 152.261719 153.332031 150.714844 154.398438 C 149.171875 155.46875 147.761719 156.757812 146.484375 158.269531 C 145.210938 159.78125 144.113281 161.464844 143.191406 163.324219 L 178.503906 163.324219 C 177.582031 161.464844 176.484375 159.78125 175.207031 158.265625 C 173.933594 156.753906 172.519531 155.464844 170.976562 154.398438 C 169.429688 153.328125 167.796875 152.519531 166.082031 151.964844 C 164.363281 151.414062 162.617188 151.136719 160.84375 151.132812 Z M 160.84375 151.132812 "/>
<path style=" stroke:none;fill-rule:nonzero;fill:rgb(100%,39.99939%,0%);fill-opacity:1;" d="M 170.9375 141.851562 C 170.9375 142.695312 170.867188 143.535156 170.734375 144.367188 C 170.597656 145.195312 170.398438 146.003906 170.132812 146.785156 C 169.871094 147.566406 169.546875 148.3125 169.160156 149.015625 C 168.777344 149.71875 168.339844 150.371094 167.851562 150.96875 C 167.363281 151.570312 166.832031 152.105469 166.257812 152.574219 C 165.683594 153.042969 165.078125 153.441406 164.4375 153.765625 C 163.800781 154.089844 163.140625 154.335938 162.464844 154.5 C 161.785156 154.664062 161.101562 154.746094 160.410156 154.746094 C 159.71875 154.746094 159.035156 154.664062 158.355469 154.5 C 157.679688 154.335938 157.019531 154.089844 156.382812 153.765625 C 155.742188 153.441406 155.136719 153.042969 154.5625 152.574219 C 153.988281 152.105469 153.453125 151.570312 152.964844 150.96875 C 152.476562 150.371094 152.039062 149.71875 151.65625 149.015625 C 151.273438 148.3125 150.949219 147.566406 150.683594 146.785156 C 150.417969 146.003906 150.21875 145.195312 150.085938 144.367188 C 149.949219 143.535156 149.882812 142.695312 149.882812 141.851562 C 149.882812 141.003906 149.949219 140.164062 150.085938 139.332031 C 150.21875 138.503906 150.417969 137.695312 150.683594 136.914062 C 150.949219 136.132812 151.273438 135.386719 151.65625 134.683594 C 152.039062 133.980469 152.476562 133.328125 152.964844 132.730469 C 153.453125 132.128906 153.988281 131.597656 154.5625 131.125 C 155.136719 130.65625 155.742188 130.257812 156.382812 129.933594 C 157.019531 129.609375 157.679688 129.363281 158.355469 129.199219 C 159.035156 129.035156 159.71875 128.953125 160.410156 128.953125 C 161.101562 128.953125 161.785156 129.035156 162.464844 129.199219 C 163.140625 129.363281 163.800781 129.609375 164.4375 129.933594 C 165.078125 130.257812 165.683594 130.65625 166.257812 131.125 C 166.832031 131.597656 167.363281 132.128906 167.851562 132.730469 C 168.339844 133.328125 168.777344 133.980469 169.160156 134.683594 C 169.546875 135.386719 169.871094 136.132812 170.132812 136.914062 C 170.398438 137.695312 170.597656 138.503906 170.734375 139.332031 C 170.867188 140.164062 170.9375 141.003906 170.9375 141.851562 Z M 170.9375 141.851562 "/>
<path style=" stroke:none;fill-rule:nonzero;fill:rgb(5.488586%,13.729858%,18.03894%);fill-opacity:1;" d="M 189.296875 127.746094 L 230.496094 127.746094 C 230.851562 127.746094 231.191406 127.835938 231.515625 128.011719 C 231.84375 128.191406 232.132812 128.445312 232.382812 128.773438 C 232.632812 129.101562 232.824219 129.480469 232.960938 129.910156 C 233.09375 130.339844 233.164062 130.789062 233.164062 131.253906 L 233.164062 132.246094 C 233.164062 132.710938 233.09375 133.15625 232.960938 133.585938 C 232.824219 134.015625 232.632812 134.394531 232.382812 134.722656 C 232.132812 135.054688 231.84375 135.304688 231.515625 135.484375 C 231.191406 135.664062 230.851562 135.75 230.496094 135.75 L 189.296875 135.75 C 188.941406 135.75 188.601562 135.664062 188.273438 135.484375 C 187.949219 135.304688 187.660156 135.054688 187.410156 134.722656 C 187.160156 134.394531 186.96875 134.015625 186.832031 133.585938 C 186.695312 133.15625 186.628906 132.710938 186.628906 132.246094 L 186.628906 131.253906 C 186.628906 130.789062 186.695312 130.339844 186.832031 129.910156 C 186.96875 129.480469 187.160156 129.101562 187.410156 128.773438 C 187.660156 128.445312 187.949219 128.191406 188.273438 128.011719 C 188.601562 127.835938 188.941406 127.746094 189.296875 127.746094 Z M 189.296875 127.746094 "/>
<path style=" stroke:none;fill-rule:nonzero;fill:rgb(5.488586%,13.729858%,18.03894%);fill-opacity:1;" d="M 189.578125 141.46875 L 230.777344 141.46875 C 231.132812 141.46875 231.472656 141.558594 231.796875 141.734375 C 232.125 141.914062 232.414062 142.167969 232.664062 142.496094 C 232.914062 142.824219 233.105469 143.203125 233.242188 143.632812 C 233.375 144.0625 233.445312 144.511719 233.445312 144.976562 L 233.445312 145.96875 C 233.445312 146.433594 233.375 146.878906 233.242188 147.308594 C 233.105469 147.738281 232.914062 148.117188 232.664062 148.449219 C 232.414062 148.777344 232.125 149.03125 231.796875 149.207031 C 231.472656 149.386719 231.132812 149.472656 230.777344 149.472656 L 189.578125 149.472656 C 189.222656 149.472656 188.882812 149.386719 188.558594 149.207031 C 188.230469 149.03125 187.941406 148.777344 187.691406 148.449219 C 187.441406 148.117188 187.25 147.738281 187.113281 147.308594 C 186.980469 146.878906 186.910156 146.433594 186.910156 145.96875 L 186.910156 144.976562 C 186.910156 144.511719 186.980469 144.0625 187.113281 143.632812 C 187.25 143.203125 187.441406 142.824219 187.691406 142.496094 C 187.941406 142.167969 188.230469 141.914062 188.558594 141.734375 C 188.882812 141.558594 189.222656 141.46875 189.578125 141.46875 Z M 189.578125 141.46875 "/>
<path style=" stroke:none;fill-rule:nonzero;fill:rgb(5.488586%,13.729858%,18.03894%);fill-opacity:1;" d="M 147.207031 170.628906 L 226.046875 170.628906 C 226.378906 170.628906 226.710938 170.652344 227.039062 170.699219 C 227.371094 170.742188 227.6875 170.808594 227.996094 170.898438 C 228.308594 170.984375 228.601562 171.09375 228.878906 171.222656 C 229.160156 171.347656 229.417969 171.496094 229.652344 171.65625 C 229.890625 171.820312 230.101562 171.996094 230.289062 172.1875 C 230.472656 172.378906 230.632812 172.582031 230.757812 172.796875 C 230.886719 173.007812 230.984375 173.226562 231.050781 173.453125 C 231.117188 173.679688 231.148438 173.90625 231.148438 174.136719 L 231.148438 175.128906 C 231.148438 175.359375 231.117188 175.589844 231.050781 175.8125 C 230.984375 176.039062 230.886719 176.257812 230.757812 176.472656 C 230.632812 176.683594 230.472656 176.886719 230.289062 177.078125 C 230.101562 177.269531 229.890625 177.445312 229.652344 177.609375 C 229.417969 177.773438 229.160156 177.917969 228.878906 178.046875 C 228.601562 178.171875 228.308594 178.28125 227.996094 178.367188 C 227.6875 178.457031 227.371094 178.523438 227.039062 178.570312 C 226.710938 178.613281 226.378906 178.636719 226.046875 178.636719 L 147.207031 178.636719 C 146.871094 178.636719 146.539062 178.613281 146.210938 178.570312 C 145.882812 178.523438 145.5625 178.457031 145.253906 178.367188 C 144.945312 178.28125 144.648438 178.171875 144.371094 178.046875 C 144.09375 177.917969 143.835938 177.773438 143.597656 177.609375 C 143.359375 177.445312 143.148438 177.269531 142.964844 177.078125 C 142.777344 176.886719 142.621094 176.683594 142.492188 176.472656 C 142.363281 176.257812 142.265625 176.039062 142.203125 175.8125 C 142.136719 175.589844 142.101562 175.359375 142.101562 175.128906 L 142.101562 174.136719 C 142.101562 173.90625 142.136719 173.679688 142.203125 173.453125 C 142.265625 173.226562 142.363281 173.007812 142.492188 172.796875 C 142.621094 172.582031 142.777344 172.378906 142.964844 172.1875 C 143.148438 171.996094 143.359375 171.820312 143.597656 171.65625 C 143.835938 171.496094 144.09375 171.347656 144.371094 171.222656 C 144.648438 171.09375 144.945312 170.984375 145.253906 170.898438 C 145.5625 170.808594 145.882812 170.742188 146.210938 170.699219 C 146.539062 170.652344 146.871094 170.628906 147.207031 170.628906 Z M 147.207031 170.628906 "/>
<path style=" stroke:none;fill-rule:nonzero;fill:rgb(5.488586%,13.729858%,18.03894%);fill-opacity:1;" d="M 147.207031 187.210938 L 226.046875 187.210938 C 226.378906 187.210938 226.710938 187.234375 227.039062 187.277344 C 227.371094 187.324219 227.6875 187.390625 227.996094 187.476562 C 228.308594 187.566406 228.601562 187.671875 228.878906 187.800781 C 229.160156 187.929688 229.417969 188.074219 229.652344 188.238281 C 229.890625 188.402344 230.101562 188.578125 230.289062 188.769531 C 230.472656 188.960938 230.632812 189.164062 230.757812 189.375 C 230.886719 189.585938 230.984375 189.808594 231.050781 190.03125 C 231.117188 190.257812 231.148438 190.488281 231.148438 190.71875 L 231.148438 191.710938 C 231.148438 191.941406 231.117188 192.167969 231.050781 192.394531 C 230.984375 192.621094 230.886719 192.839844 230.757812 193.050781 C 230.632812 193.265625 230.472656 193.464844 230.289062 193.65625 C 230.101562 193.847656 229.890625 194.027344 229.652344 194.1875 C 229.417969 194.351562 229.160156 194.496094 228.878906 194.625 C 228.601562 194.753906 228.308594 194.859375 227.996094 194.949219 C 227.6875 195.039062 227.371094 195.105469 227.039062 195.148438 C 226.710938 195.195312 226.378906 195.214844 226.046875 195.214844 L 147.207031 195.214844 C 146.871094 195.214844 146.539062 195.195312 146.210938 195.148438 C 145.882812 195.105469 145.5625 195.039062 145.253906 194.949219 C 144.945312 194.859375 144.648438 194.753906 144.371094 194.625 C 144.09375 194.496094 143.835938 194.351562 143.597656 194.1875 C 143.359375 194.027344 143.148438 193.847656 142.964844 193.65625 C 142.777344 193.464844 142.621094 193.265625 142.492188 193.050781 C 142.363281 192.839844 142.265625 192.621094 142.203125 192.394531 C 142.136719 192.167969 142.101562 191.941406 142.101562 191.710938 L 142.101562 190.71875 C 142.101562 190.488281 142.136719 190.257812 142.203125 190.03125 C 142.265625 189.808594 142.363281 189.585938 142.492188 189.375 C 142.621094 189.164062 142.777344 188.960938 142.964844 188.769531 C 143.148438 188.578125 143.359375 188.402344 143.597656 188.238281 C 143.835938 188.074219 144.09375 187.929688 144.371094 187.800781 C 144.648438 187.671875 144.945312 187.566406 145.253906 187.476562 C 145.5625 187.390625 145.882812 187.324219 146.210938 187.277344 C 146.539062 187.234375 146.871094 187.210938 147.207031 187.210938 Z M 147.207031 187.210938 "/>
<path style=" stroke:none;fill-rule:nonzero;fill:rgb(5.488586%,13.729858%,18.03894%);fill-opacity:1;" d="M 147.207031 202.652344 L 226.046875 202.652344 C 226.378906 202.652344 226.710938 202.675781 227.039062 202.71875 C 227.371094 202.765625 227.6875 202.832031 227.996094 202.917969 C 228.308594 203.007812 228.601562 203.113281 228.878906 203.242188 C 229.160156 203.371094 229.417969 203.515625 229.652344 203.679688 C 229.890625 203.839844 230.101562 204.019531 230.289062 204.210938 C 230.472656 204.402344 230.632812 204.601562 230.757812 204.816406 C 230.886719 205.027344 230.984375 205.25 231.050781 205.472656 C 231.117188 205.699219 231.148438 205.925781 231.148438 206.15625 L 231.148438 207.152344 C 231.148438 207.382812 231.117188 207.609375 231.050781 207.835938 C 230.984375 208.0625 230.886719 208.28125 230.757812 208.492188 C 230.632812 208.707031 230.472656 208.90625 230.289062 209.097656 C 230.101562 209.289062 229.890625 209.46875 229.652344 209.628906 C 229.417969 209.792969 229.160156 209.9375 228.878906 210.066406 C 228.601562 210.195312 228.308594 210.300781 227.996094 210.390625 C 227.6875 210.476562 227.371094 210.542969 227.039062 210.589844 C 226.710938 210.632812 226.378906 210.65625 226.046875 210.65625 L 147.207031 210.65625 C 146.871094 210.65625 146.539062 210.632812 146.210938 210.589844 C 145.882812 210.542969 145.5625 210.476562 145.253906 210.390625 C 144.945312 210.300781 144.648438 210.195312 144.371094 210.066406 C 144.09375 209.9375 143.835938 209.792969 143.597656 209.628906 C 143.359375 209.46875 143.148438 209.289062 142.964844 209.097656 C 142.777344 208.90625 142.621094 208.707031 142.492188 208.492188 C 142.363281 208.28125 142.265625 208.0625 142.203125 207.835938 C 142.136719 207.609375 142.101562 207.382812 142.101562 207.152344 L 142.101562 206.15625 C 142.101562 205.925781 142.136719 205.699219 142.203125 205.472656 C 142.265625 205.25 142.363281 205.027344 142.492188 204.816406 C 142.621094 204.601562 142.777344 204.402344 142.964844 204.210938 C 143.148438 204.019531 143.359375 203.839844 143.597656 203.679688 C 143.835938 203.515625 144.09375 203.371094 144.371094 203.242188 C 144.648438 203.113281 144.945312 203.007812 145.253906 202.917969 C 145.5625 202.832031 145.882812 202.765625 146.210938 202.71875 C 146.539062 202.675781 146.871094 202.652344 147.207031 202.652344 Z M 147.207031 202.652344 "/>
<path style=" stroke:none;fill-rule:nonzero;fill:rgb(5.488586%,13.729858%,18.03894%);fill-opacity:1;" d="M 144.738281 219.230469 L 185.429688 219.230469 C 185.777344 219.230469 186.113281 219.320312 186.4375 219.5 C 186.757812 219.675781 187.042969 219.929688 187.292969 220.257812 C 187.539062 220.585938 187.730469 220.96875 187.863281 221.398438 C 187.996094 221.824219 188.0625 222.273438 188.0625 222.738281 L 188.0625 223.730469 C 188.0625 224.195312 187.996094 224.644531 187.863281 225.074219 C 187.730469 225.503906 187.539062 225.882812 187.292969 226.210938 C 187.042969 226.539062 186.757812 226.792969 186.4375 226.96875 C 186.113281 227.148438 185.777344 227.238281 185.429688 227.238281 L 144.738281 227.238281 C 144.386719 227.238281 144.050781 227.148438 143.730469 226.96875 C 143.40625 226.792969 143.121094 226.539062 142.875 226.210938 C 142.628906 225.882812 142.4375 225.503906 142.304688 225.074219 C 142.171875 224.644531 142.101562 224.195312 142.101562 223.730469 L 142.101562 222.738281 C 142.101562 222.273438 142.171875 221.824219 142.304688 221.398438 C 142.4375 220.96875 142.628906 220.585938 142.875 220.257812 C 143.121094 219.929688 143.40625 219.675781 143.730469 219.5 C 144.050781 219.320312 144.386719 219.230469 144.738281 219.230469 Z M 144.738281 219.230469 "/>
<path style=" stroke:none;fill-rule:nonzero;fill:rgb(5.488586%,13.729858%,18.03894%);fill-opacity:1;" d="M 204.804688 239.246094 L 226.484375 239.246094 C 226.953125 239.246094 227.402344 239.335938 227.832031 239.511719 C 228.265625 239.691406 228.644531 239.941406 228.976562 240.273438 C 229.304688 240.601562 229.558594 240.980469 229.738281 241.410156 C 229.917969 241.839844 230.007812 242.285156 230.007812 242.75 L 230.007812 243.746094 C 230.007812 244.210938 229.917969 244.65625 229.738281 245.085938 C 229.558594 245.515625 229.304688 245.894531 228.976562 246.222656 C 228.644531 246.550781 228.265625 246.804688 227.832031 246.984375 C 227.402344 247.160156 226.953125 247.25 226.484375 247.25 L 204.804688 247.25 C 204.339844 247.25 203.890625 247.160156 203.457031 246.984375 C 203.027344 246.804688 202.644531 246.550781 202.316406 246.222656 C 201.984375 245.894531 201.730469 245.515625 201.550781 245.085938 C 201.371094 244.65625 201.28125 244.210938 201.285156 243.746094 L 201.285156 242.75 C 201.28125 242.285156 201.371094 241.839844 201.550781 241.410156 C 201.730469 240.980469 201.984375 240.601562 202.316406 240.273438 C 202.644531 239.941406 203.027344 239.691406 203.457031 239.511719 C 203.890625 239.335938 204.339844 239.246094 204.804688 239.246094 Z M 204.804688 239.246094 "/>
</g>
</svg>
