<svg width="452" height="450" viewBox="0 0 452 450" fill="none" xmlns="http://www.w3.org/2000/svg">
<path d="M452 322.485C452.009 325.184 451.302 327.779 450.034 329.697C448.767 331.616 447.042 332.701 445.239 332.715H147.777C146.884 332.708 146.001 332.438 145.179 331.92C144.356 331.403 143.609 330.647 142.981 329.697C142.354 328.747 141.857 327.622 141.52 326.384C141.182 325.147 141.011 323.822 141.016 322.486V18.2301C141.006 15.531 141.713 12.9369 142.981 11.0184C144.249 9.09986 145.974 8.01411 147.776 8H445.239C446.132 8.00695 447.014 8.27707 447.837 8.79493C448.66 9.31279 449.407 10.0682 450.034 11.0182C450.662 11.9681 451.159 13.0939 451.496 14.3313C451.833 15.5686 452.005 16.8934 452 18.2298V18.2301V322.485Z" fill="#E6E6E6"/>
<path d="M448.491 317.503C448.491 320.126 447.795 322.642 446.556 324.497C445.317 326.353 443.637 327.395 441.885 327.395H151.334C149.582 327.395 147.902 326.353 146.663 324.497C145.425 322.642 144.729 320.126 144.729 317.503V23.3518C144.729 20.7283 145.425 18.2123 146.663 16.3573C147.902 14.5022 149.582 13.46 151.334 13.46H441.898C443.648 13.4653 445.325 14.5098 446.561 16.3643C447.797 18.2188 448.491 20.7318 448.491 23.3518V317.503Z" fill="white"/>
<path d="M160.257 26.231H433.272C434.312 26.231 435.309 26.8496 436.045 27.9507C436.78 29.0518 437.193 30.5452 437.193 32.1024V307.611C437.193 309.168 436.78 310.662 436.045 311.763C435.309 312.864 434.312 313.483 433.272 313.483H160.257C159.217 313.483 158.22 312.864 157.485 311.763C156.749 310.662 156.336 309.168 156.336 307.611V32.1024C156.336 30.5452 156.749 29.0518 157.485 27.9507C158.22 26.8496 159.217 26.231 160.257 26.231V26.231Z" fill="#E6E6E6"/>
<path d="M163.713 32.8388H429.52C430.56 32.8388 431.557 33.4574 432.292 34.5585C433.028 35.6596 433.441 37.153 433.441 38.7101V299.517C433.441 301.075 433.028 302.568 432.292 303.669C431.557 304.77 430.56 305.389 429.52 305.389H163.713C162.673 305.389 161.676 304.77 160.941 303.669C160.205 302.568 159.792 301.075 159.792 299.517V38.7101C159.792 37.153 160.205 35.6596 160.941 34.5585C161.676 33.4574 162.673 32.8388 163.713 32.8388V32.8388Z" fill="white"/>
<path d="M351.391 214.016C350.345 214.015 349.31 213.685 348.354 213.048C348.132 212.9 347.92 212.719 347.722 212.509L328.404 192.147C327.424 191.115 326.625 189.745 326.073 188.152C325.521 186.56 325.232 184.792 325.232 182.998V155.229C325.232 153.435 325.521 151.668 326.073 150.075C326.625 148.483 327.424 147.113 328.404 146.08L347.722 125.718C347.92 125.508 348.132 125.328 348.354 125.18C349.492 124.422 350.739 124.102 351.98 124.25C353.222 124.397 354.419 125.006 355.463 126.022C356.507 127.038 357.365 128.428 357.959 130.067C358.553 131.706 358.865 133.541 358.865 135.406V202.821C358.865 205.79 358.077 208.636 356.676 210.735C355.274 212.834 353.373 214.013 351.391 214.013L351.391 214.016Z" fill="#3F3D56"/>
<path d="M308.158 219.476H254.28C243.288 219.462 234.379 208.823 234.368 195.694V142.534C234.379 129.405 243.288 118.765 254.28 118.752H308.298C319.212 118.767 328.056 129.331 328.069 142.366V195.694C328.058 208.823 319.15 219.462 308.158 219.476Z" fill="#3F3D56"/>
<path d="M404.133 288.618C412.982 288.618 420.157 277.875 420.157 264.623C420.157 251.372 412.982 240.629 404.133 240.629C395.283 240.629 388.109 251.372 388.109 264.623C388.109 277.875 395.283 288.618 404.133 288.618Z" fill="#E6E6E6"/>
<path d="M412.455 264.193L399.683 253.151C399.632 253.107 399.575 253.084 399.517 253.084C399.459 253.084 399.401 253.107 399.351 253.151C399.301 253.194 399.259 253.257 399.23 253.333C399.201 253.408 399.185 253.494 399.185 253.581V275.666C399.185 275.753 399.201 275.839 399.23 275.914C399.259 275.99 399.301 276.052 399.351 276.096C399.401 276.14 399.459 276.163 399.517 276.163C399.575 276.163 399.632 276.14 399.683 276.096L412.455 265.054C412.506 265.01 412.548 264.947 412.577 264.872C412.606 264.796 412.621 264.711 412.621 264.623C412.621 264.536 412.606 264.451 412.577 264.375C412.548 264.3 412.506 264.237 412.455 264.193L399.683 253.151C399.632 253.107 399.575 253.084 399.517 253.084C399.459 253.084 399.401 253.107 399.351 253.151C399.301 253.194 399.259 253.257 399.23 253.333C399.201 253.408 399.185 253.494 399.185 253.581V275.666C399.185 275.753 399.201 275.839 399.23 275.914C399.259 275.99 399.301 276.052 399.351 276.096C399.401 276.14 399.459 276.163 399.517 276.163C399.575 276.163 399.632 276.14 399.683 276.096L412.455 265.054C412.506 265.01 412.548 264.947 412.577 264.872C412.606 264.796 412.621 264.711 412.621 264.623C412.621 264.536 412.606 264.451 412.577 264.375C412.548 264.3 412.506 264.237 412.455 264.193V264.193Z" fill="white"/>
<path d="M383.327 358.974C383.337 361.673 382.63 364.267 381.362 366.186C380.094 368.104 378.369 369.19 376.567 369.204H79.1043C78.2118 369.197 77.3289 368.927 76.5061 368.409C75.6834 367.891 74.9367 367.136 74.3089 366.186C73.6811 365.236 73.1844 364.11 72.8472 362.873C72.5099 361.635 72.3387 360.311 72.3434 358.974V54.7187C72.3339 52.0196 73.0409 49.4255 74.3088 47.507C75.5767 45.5885 77.3016 44.5027 79.1041 44.4886H376.567C377.459 44.4956 378.342 44.7657 379.165 45.2835C379.987 45.8014 380.734 46.5568 381.362 47.5068C381.99 48.4567 382.486 49.5825 382.824 50.8199C383.161 52.0572 383.332 53.382 383.327 54.7184V54.7187V358.974Z" fill="#E6E6E6"/>
<path d="M379.818 353.991C379.818 356.615 379.122 359.131 377.884 360.986C376.645 362.841 374.965 363.883 373.213 363.883H82.662C80.91 363.883 79.2298 362.841 77.9909 360.986C76.7521 359.131 76.0561 356.615 76.0561 353.991V59.8403C76.0561 57.2169 76.7521 54.7009 77.9909 52.8458C79.2298 50.9908 80.91 49.9486 82.662 49.9486H373.226C374.976 49.9539 376.652 50.9984 377.888 52.8529C379.124 54.7074 379.818 57.2203 379.818 59.8403V353.991Z" fill="white"/>
<path d="M91.5849 62.7196H364.6C365.64 62.7196 366.637 63.3382 367.372 64.4393C368.108 65.5404 368.521 67.0338 368.521 68.591V344.1C368.521 345.657 368.108 347.15 367.372 348.252C366.637 349.353 365.64 349.971 364.6 349.971H91.5849C90.545 349.971 89.5477 349.353 88.8124 348.252C88.0771 347.15 87.664 345.657 87.664 344.1V68.591C87.664 67.0338 88.0771 65.5404 88.8124 64.4393C89.5477 63.3382 90.545 62.7196 91.5849 62.7196Z" fill="#E6E6E6"/>
<path d="M95.0407 69.3274H360.847C361.887 69.3274 362.884 69.946 363.62 71.0471C364.355 72.1482 364.768 73.6416 364.768 75.1987V336.006C364.768 337.563 364.355 339.057 363.62 340.158C362.884 341.259 361.887 341.877 360.847 341.877H95.0407C94.0008 341.877 93.0035 341.259 92.2682 340.158C91.5328 339.057 91.1197 337.563 91.1197 336.006V75.1987C91.1197 73.6416 91.5328 72.1482 92.2682 71.0471C93.0035 69.946 94.0008 69.3274 95.0407 69.3274V69.3274Z" fill="white"/>
<path d="M282.718 250.505C281.672 250.504 280.638 250.174 279.682 249.536C279.46 249.389 279.248 249.208 279.049 248.998L259.731 228.636C258.752 227.603 257.952 226.233 257.4 224.641C256.848 223.049 256.56 221.281 256.56 219.487V191.718C256.56 189.924 256.848 188.156 257.4 186.564C257.952 184.972 258.752 183.601 259.731 182.569L279.049 162.207C279.248 161.997 279.46 161.816 279.682 161.668C280.82 160.911 282.066 160.591 283.308 160.738C284.549 160.885 285.746 161.494 286.791 162.51C287.835 163.526 288.693 164.917 289.287 166.556C289.881 168.195 290.192 170.03 290.192 171.895V239.31C290.192 242.278 289.405 245.125 288.003 247.224C286.602 249.323 284.7 250.502 282.718 250.502L282.718 250.505Z" fill="#3F3D56"/>
<path d="M239.485 255.964H185.607C174.615 255.951 165.707 245.311 165.696 232.182V179.022C165.707 165.893 174.615 155.254 185.607 155.24H239.626C250.54 155.256 259.384 165.819 259.397 178.854V232.182C259.385 245.311 250.477 255.951 239.485 255.964Z" fill="#3F3D56"/>
<path d="M335.46 325.107C344.31 325.107 351.484 314.364 351.484 301.112C351.484 287.86 344.31 277.118 335.46 277.118C326.611 277.118 319.436 287.86 319.436 301.112C319.436 314.364 326.611 325.107 335.46 325.107Z" fill="#E6E6E6"/>
<path d="M343.783 300.682L331.01 289.64C330.96 289.596 330.903 289.573 330.844 289.573C330.786 289.573 330.729 289.596 330.679 289.64C330.628 289.683 330.586 289.746 330.557 289.821C330.528 289.897 330.513 289.982 330.513 290.07V312.155C330.513 312.242 330.528 312.327 330.557 312.403C330.586 312.478 330.628 312.541 330.679 312.585C330.729 312.628 330.786 312.651 330.844 312.651C330.903 312.651 330.96 312.628 331.01 312.585L343.783 301.542C343.833 301.499 343.875 301.436 343.904 301.36C343.934 301.285 343.949 301.199 343.949 301.112C343.949 301.025 343.934 300.939 343.904 300.864C343.875 300.788 343.833 300.726 343.783 300.682L331.01 289.64C330.96 289.596 330.903 289.573 330.844 289.573C330.786 289.573 330.729 289.596 330.679 289.64C330.628 289.683 330.586 289.746 330.557 289.821C330.528 289.897 330.513 289.982 330.513 290.07V312.155C330.513 312.242 330.528 312.327 330.557 312.403C330.586 312.478 330.628 312.541 330.679 312.585C330.729 312.628 330.786 312.651 330.844 312.651C330.903 312.651 330.96 312.628 331.01 312.585L343.783 301.542C343.833 301.499 343.875 301.436 343.904 301.36C343.934 301.285 343.949 301.199 343.949 301.112C343.949 301.025 343.934 300.939 343.904 300.864C343.875 300.788 343.833 300.726 343.783 300.682Z" fill="white"/>
<path d="M315.984 400.77C315.994 403.469 315.287 406.063 314.019 407.982C312.751 409.9 311.026 410.986 309.223 411H11.761C10.8685 410.993 9.98567 410.723 9.16289 410.205C8.3401 409.687 7.59349 408.932 6.96568 407.982C6.33787 407.032 5.84116 405.906 5.50391 404.669C5.16665 403.431 4.99546 402.107 5.00011 400.77V96.5147C4.99068 93.8157 5.69767 91.2215 6.96555 89.303C8.23344 87.3845 9.95835 86.2988 11.7608 86.2846H309.223C310.116 86.2916 310.999 86.5617 311.821 87.0796C312.644 87.5974 313.391 88.3529 314.019 89.3028C314.646 90.2527 315.143 91.3785 315.48 92.6159C315.818 93.8533 315.989 95.178 315.984 96.5144V96.5147V400.77Z" fill="#E6E6E6"/>
<path d="M312.475 395.788C312.475 398.411 311.779 400.927 310.54 402.782C309.302 404.637 307.621 405.679 305.869 405.679H15.3187C13.5667 405.679 11.8865 404.637 10.6477 402.782C9.40882 400.927 8.71284 398.411 8.71284 395.788V101.636C8.71284 99.0129 9.40882 96.4969 10.6477 94.6419C11.8865 92.7868 13.5667 91.7447 15.3187 91.7447H305.883C307.632 91.7499 309.309 92.7944 310.545 94.6489C311.781 96.5034 312.475 99.0164 312.475 101.636V395.788Z" fill="white"/>
<path d="M24.2417 104.516H297.257C298.296 104.516 299.294 105.134 300.029 106.235C300.764 107.336 301.178 108.83 301.178 110.387V385.896C301.178 387.453 300.764 388.946 300.029 390.048C299.294 391.149 298.296 391.767 297.257 391.767H24.2417C23.2018 391.767 22.2044 391.149 21.4691 390.048C20.7338 388.946 20.3207 387.453 20.3207 385.896V110.387C20.3207 108.83 20.7338 107.336 21.4691 106.235C22.2044 105.134 23.2018 104.516 24.2417 104.516V104.516Z" fill="#E6E6E6"/>
<path d="M27.6974 111.123H293.504C294.019 111.123 294.529 111.275 295.004 111.57C295.48 111.865 295.912 112.298 296.277 112.843C296.641 113.388 296.929 114.036 297.126 114.748C297.324 115.46 297.425 116.224 297.425 116.995V377.802C297.425 378.573 297.324 379.337 297.126 380.049C296.929 380.761 296.641 381.409 296.277 381.954C295.912 382.499 295.48 382.931 295.004 383.226C294.529 383.522 294.019 383.673 293.504 383.673H27.6974C26.6575 383.673 25.6602 383.055 24.9249 381.954C24.1896 380.853 23.7765 379.359 23.7765 377.802V116.995C23.7765 115.438 24.1896 113.944 24.9249 112.843C25.6602 111.742 26.6575 111.123 27.6974 111.123V111.123Z" fill="white"/>
<path d="M215.375 292.301C214.329 292.3 213.294 291.97 212.339 291.332C212.116 291.185 211.904 291.004 211.706 290.794L192.388 270.432C191.408 269.399 190.609 268.029 190.057 266.437C189.505 264.845 189.217 263.077 189.216 261.283V233.514C189.217 231.72 189.505 229.952 190.057 228.36C190.609 226.768 191.408 225.397 192.388 224.365L211.706 204.003C211.904 203.793 212.116 203.612 212.339 203.464C213.477 202.707 214.723 202.387 215.964 202.534C217.206 202.681 218.403 203.29 219.447 204.306C220.491 205.322 221.35 206.713 221.944 208.352C222.538 209.991 222.849 211.826 222.849 213.691V281.106C222.849 284.074 222.061 286.921 220.66 289.02C219.258 291.119 217.357 292.298 215.375 292.298L215.375 292.301Z" fill="#C1C0C5"/>
<path d="M172.142 297.761H118.264C107.272 297.747 98.3638 287.107 98.3525 273.978V220.818C98.3638 207.689 107.272 197.05 118.264 197.036H172.283C183.196 197.052 192.041 207.615 192.053 220.651V273.978C192.042 287.107 183.134 297.747 172.142 297.761Z" fill="#C1C0C5"/>
<path d="M268.117 366.903C276.967 366.903 284.141 356.16 284.141 342.908C284.141 329.656 276.967 318.914 268.117 318.914C259.267 318.914 252.093 329.656 252.093 342.908C252.093 356.16 259.267 366.903 268.117 366.903Z" fill="#3F3D56"/>
<path d="M276.44 342.478L263.667 331.435C263.617 331.392 263.559 331.369 263.501 331.369C263.443 331.369 263.386 331.392 263.335 331.435C263.285 331.479 263.243 331.542 263.214 331.617C263.185 331.693 263.17 331.778 263.17 331.866V353.951C263.17 354.038 263.185 354.123 263.214 354.199C263.243 354.274 263.285 354.337 263.335 354.381C263.386 354.424 263.443 354.447 263.501 354.447C263.559 354.447 263.617 354.424 263.667 354.381L276.44 343.338C276.49 343.295 276.532 343.232 276.561 343.156C276.59 343.081 276.606 342.995 276.606 342.908C276.606 342.821 276.59 342.735 276.561 342.66C276.532 342.584 276.49 342.522 276.44 342.478L263.667 331.435C263.617 331.392 263.559 331.369 263.501 331.369C263.443 331.369 263.386 331.392 263.335 331.435C263.285 331.479 263.243 331.542 263.214 331.617C263.185 331.693 263.17 331.778 263.17 331.866V353.951C263.17 354.038 263.185 354.123 263.214 354.199C263.243 354.274 263.285 354.337 263.335 354.381C263.386 354.424 263.443 354.447 263.501 354.447C263.559 354.447 263.617 354.424 263.667 354.381L276.44 343.338C276.49 343.295 276.532 343.232 276.561 343.156C276.59 343.081 276.606 342.995 276.606 342.908C276.606 342.821 276.59 342.735 276.561 342.66C276.532 342.584 276.49 342.522 276.44 342.478V342.478Z" fill="white"/>
</svg>
