<svg xmlns="http://www.w3.org/2000/svg" xmlns:xlink="http://www.w3.org/1999/xlink" width="100" zoomAndPan="magnify" viewBox="0 0 75 74.999997" height="100" preserveAspectRatio="xMidYMid meet" version="1.0"><defs><clipPath id="id1"><path d="M 2.023438 0.898438 L 73.273438 0.898438 L 73.273438 72.148438 L 2.023438 72.148438 Z M 2.023438 0.898438 " clip-rule="nonzero"/></clipPath></defs><g clip-path="url(#id1)"><path fill="rgb(100%, 100%, 100%)" d="M 37.644531 0.90625 C 47.480469 0.90625 56.386719 4.894531 62.835938 11.339844 C 69.28125 17.785156 73.269531 26.691406 73.269531 36.53125 C 73.269531 46.367188 69.28125 55.273438 62.835938 61.722656 C 56.390625 68.167969 47.484375 72.15625 37.644531 72.15625 C 27.808594 72.15625 18.902344 68.167969 12.453125 61.722656 C 6.007812 55.273438 2.019531 46.367188 2.019531 36.53125 C 2.019531 26.695312 6.007812 17.789062 12.453125 11.339844 C 18.902344 4.894531 27.808594 0.90625 37.644531 0.90625 Z M 62.042969 12.132812 C 55.796875 5.890625 47.171875 2.027344 37.644531 2.027344 C 28.117188 2.027344 19.488281 5.890625 13.246094 12.132812 C 7.003906 18.378906 3.140625 27.003906 3.140625 36.53125 C 3.140625 46.058594 7.003906 54.683594 13.246094 60.929688 C 19.488281 67.171875 28.117188 71.035156 37.644531 71.035156 C 47.171875 71.035156 55.796875 67.171875 62.042969 60.929688 C 68.285156 54.683594 72.148438 46.058594 72.148438 36.53125 C 72.148438 27.003906 68.285156 18.378906 62.042969 12.132812 Z M 62.042969 12.132812 " fill-opacity="1" fill-rule="nonzero"/></g><path fill="rgb(100%, 100%, 100%)" d="M 29.027344 35.722656 C 28.964844 35.722656 28.902344 35.707031 28.847656 35.671875 L 24.121094 32.761719 C 24.015625 32.699219 23.953125 32.589844 23.953125 32.464844 C 23.953125 32.347656 24.015625 32.234375 24.121094 32.171875 L 28.847656 29.261719 C 29.007812 29.164062 29.222656 29.214844 29.324219 29.378906 C 29.425781 29.539062 29.375 29.753906 29.210938 29.855469 L 24.964844 32.464844 L 29.210938 35.078125 C 29.375 35.179688 29.425781 35.390625 29.324219 35.554688 C 29.257812 35.664062 29.144531 35.726562 29.027344 35.722656 Z M 29.027344 35.722656 " fill-opacity="1" fill-rule="evenodd"/><path fill="rgb(100%, 100%, 100%)" d="M 46.257812 35.722656 C 46.140625 35.722656 46.027344 35.664062 45.960938 35.558594 C 45.863281 35.394531 45.914062 35.179688 46.078125 35.082031 L 50.320312 32.46875 L 46.078125 29.859375 C 45.914062 29.757812 45.863281 29.542969 45.964844 29.378906 C 46.066406 29.21875 46.277344 29.164062 46.445312 29.265625 L 51.167969 32.175781 C 51.273438 32.238281 51.335938 32.347656 51.335938 32.46875 C 51.335938 32.589844 51.273438 32.703125 51.167969 32.765625 L 46.445312 35.675781 C 46.386719 35.707031 46.320312 35.726562 46.257812 35.722656 Z M 46.257812 35.722656 " fill-opacity="1" fill-rule="evenodd"/><path fill="rgb(100%, 100%, 100%)" d="M 32.769531 31.792969 L 30.785156 31.792969 C 30.589844 31.792969 30.4375 31.636719 30.4375 31.445312 C 30.4375 31.253906 30.589844 31.097656 30.785156 31.097656 L 32.769531 31.097656 C 32.960938 31.097656 33.117188 31.253906 33.117188 31.445312 C 33.117188 31.636719 32.960938 31.792969 32.769531 31.792969 Z M 32.769531 31.792969 " fill-opacity="1" fill-rule="evenodd"/><path fill="rgb(100%, 100%, 100%)" d="M 36.683594 31.792969 L 34.695312 31.792969 C 34.503906 31.792969 34.347656 31.636719 34.347656 31.445312 C 34.347656 31.253906 34.503906 31.097656 34.695312 31.097656 L 36.683594 31.097656 C 36.875 31.097656 37.03125 31.253906 37.03125 31.445312 C 37.03125 31.636719 36.875 31.792969 36.683594 31.792969 Z M 36.683594 31.792969 " fill-opacity="1" fill-rule="evenodd"/><path fill="rgb(100%, 100%, 100%)" d="M 40.59375 31.792969 L 38.605469 31.792969 C 38.414062 31.792969 38.261719 31.636719 38.261719 31.445312 C 38.261719 31.253906 38.414062 31.097656 38.605469 31.097656 L 40.59375 31.097656 C 40.785156 31.097656 40.941406 31.253906 40.941406 31.445312 C 40.941406 31.636719 40.785156 31.792969 40.59375 31.792969 Z M 40.59375 31.792969 " fill-opacity="1" fill-rule="evenodd"/><path fill="rgb(100%, 100%, 100%)" d="M 44.503906 31.792969 L 42.519531 31.792969 C 42.328125 31.792969 42.171875 31.636719 42.171875 31.445312 C 42.171875 31.253906 42.328125 31.097656 42.519531 31.097656 L 44.503906 31.097656 C 44.695312 31.097656 44.851562 31.253906 44.851562 31.445312 C 44.851562 31.636719 44.695312 31.792969 44.503906 31.792969 Z M 44.503906 31.792969 " fill-opacity="1" fill-rule="evenodd"/><path fill="rgb(100%, 100%, 100%)" d="M 32.769531 33.839844 L 30.785156 33.839844 C 30.589844 33.839844 30.4375 33.683594 30.4375 33.492188 C 30.4375 33.300781 30.589844 33.148438 30.785156 33.148438 L 32.769531 33.148438 C 32.960938 33.148438 33.117188 33.300781 33.117188 33.492188 C 33.117188 33.683594 32.960938 33.839844 32.769531 33.839844 Z M 32.769531 33.839844 " fill-opacity="1" fill-rule="evenodd"/><path fill="rgb(100%, 100%, 100%)" d="M 36.683594 33.839844 L 34.695312 33.839844 C 34.503906 33.839844 34.347656 33.683594 34.347656 33.492188 C 34.347656 33.300781 34.503906 33.148438 34.695312 33.148438 L 36.683594 33.148438 C 36.875 33.148438 37.03125 33.300781 37.03125 33.492188 C 37.03125 33.683594 36.875 33.839844 36.683594 33.839844 Z M 36.683594 33.839844 " fill-opacity="1" fill-rule="evenodd"/><path fill="rgb(100%, 100%, 100%)" d="M 40.59375 33.839844 L 38.605469 33.839844 C 38.414062 33.839844 38.261719 33.683594 38.261719 33.492188 C 38.261719 33.300781 38.414062 33.148438 38.605469 33.148438 L 40.59375 33.148438 C 40.785156 33.148438 40.941406 33.300781 40.941406 33.492188 C 40.941406 33.683594 40.785156 33.839844 40.59375 33.839844 Z M 40.59375 33.839844 " fill-opacity="1" fill-rule="evenodd"/><path fill="rgb(100%, 100%, 100%)" d="M 44.503906 33.839844 L 42.519531 33.839844 C 42.328125 33.839844 42.171875 33.683594 42.171875 33.492188 C 42.171875 33.300781 42.328125 33.148438 42.519531 33.148438 L 44.503906 33.148438 C 44.695312 33.148438 44.851562 33.300781 44.851562 33.492188 C 44.851562 33.683594 44.695312 33.839844 44.503906 33.839844 Z M 44.503906 33.839844 " fill-opacity="1" fill-rule="evenodd"/><path fill="rgb(100%, 100%, 100%)" d="M 17.363281 17.605469 C 16.464844 17.605469 15.738281 18.332031 15.738281 19.222656 L 15.738281 45.710938 C 15.738281 46.605469 16.464844 47.332031 17.359375 47.332031 L 57.925781 47.332031 C 58.820312 47.332031 59.546875 46.605469 59.546875 45.710938 L 59.546875 19.226562 C 59.546875 18.332031 58.820312 17.605469 57.925781 17.605469 Z M 57.925781 48.027344 L 17.363281 48.027344 C 16.082031 48.027344 15.042969 46.988281 15.042969 45.710938 L 15.042969 19.226562 C 15.042969 17.949219 16.082031 16.910156 17.363281 16.910156 L 57.929688 16.910156 C 59.207031 16.910156 60.246094 17.949219 60.246094 19.226562 L 60.246094 45.710938 C 60.242188 46.988281 59.203125 48.027344 57.925781 48.027344 Z M 57.925781 48.027344 " fill-opacity="1" fill-rule="evenodd"/><path fill="rgb(100%, 100%, 100%)" d="M 18.222656 44.847656 L 57.066406 44.847656 L 57.066406 20.085938 L 18.222656 20.085938 Z M 57.414062 45.546875 L 17.875 45.546875 C 17.683594 45.546875 17.527344 45.390625 17.527344 45.199219 L 17.527344 19.742188 C 17.527344 19.550781 17.683594 19.394531 17.875 19.394531 L 57.414062 19.394531 C 57.605469 19.394531 57.761719 19.550781 57.761719 19.742188 L 57.761719 45.199219 C 57.761719 45.390625 57.605469 45.546875 57.414062 45.546875 Z M 57.414062 45.546875 " fill-opacity="1" fill-rule="evenodd"/><path fill="rgb(100%, 100%, 100%)" d="M 45.785156 56.152344 L 29.503906 56.152344 C 29.34375 56.152344 29.207031 56.046875 29.167969 55.894531 C 29.125 55.738281 29.195312 55.578125 29.332031 55.5 C 33.691406 53.050781 33.160156 49.59375 32.875 47.734375 C 32.847656 47.542969 32.976562 47.367188 33.164062 47.335938 C 33.355469 47.308594 33.535156 47.4375 33.5625 47.628906 C 33.757812 48.898438 33.882812 50.273438 33.46875 51.710938 C 33.046875 53.175781 32.117188 54.433594 30.699219 55.457031 L 44.59375 55.457031 C 43.179688 54.433594 42.246094 53.179688 41.824219 51.710938 C 41.410156 50.273438 41.535156 48.898438 41.730469 47.628906 C 41.761719 47.4375 41.9375 47.308594 42.125 47.335938 C 42.316406 47.367188 42.445312 47.542969 42.417969 47.734375 C 42.132812 49.59375 41.601562 53.050781 45.957031 55.5 C 46.097656 55.578125 46.164062 55.738281 46.125 55.894531 C 46.082031 56.046875 45.941406 56.152344 45.785156 56.152344 Z M 45.785156 56.152344 " fill-opacity="1" fill-rule="evenodd"/></svg>