<svg xmlns="http://www.w3.org/2000/svg" xmlns:xlink="http://www.w3.org/1999/xlink" width="100" zoomAndPan="magnify" viewBox="0 0 75 74.999997" height="100" preserveAspectRatio="xMidYMid meet" version="1.0"><defs><clipPath id="id1"><path d="M 2.023438 0 L 73.273438 0 L 73.273438 71.25 L 2.023438 71.25 Z M 2.023438 0 " clip-rule="nonzero"/></clipPath></defs><g clip-path="url(#id1)"><path fill="rgb(100%, 100%, 100%)" d="M 37.644531 0.0078125 C 47.480469 0.0078125 56.386719 3.992188 62.835938 10.441406 C 69.28125 16.886719 73.269531 25.792969 73.269531 35.632812 C 73.269531 45.46875 69.28125 54.375 62.835938 60.820312 C 56.390625 67.269531 47.484375 71.257812 37.644531 71.257812 C 27.808594 71.257812 18.902344 67.269531 12.453125 60.820312 C 6.007812 54.375 2.019531 45.46875 2.019531 35.632812 C 2.019531 25.792969 6.007812 16.886719 12.453125 10.441406 C 18.902344 3.992188 27.808594 0.0078125 37.644531 0.0078125 Z M 62.042969 11.234375 C 55.796875 4.992188 47.171875 1.128906 37.644531 1.128906 C 28.117188 1.128906 19.488281 4.992188 13.246094 11.234375 C 7.003906 17.476562 3.140625 26.101562 3.140625 35.632812 C 3.140625 45.160156 7.003906 53.785156 13.246094 60.027344 C 19.488281 66.269531 28.117188 70.132812 37.644531 70.132812 C 47.171875 70.132812 55.796875 66.269531 62.042969 60.027344 C 68.285156 53.785156 72.148438 45.160156 72.148438 35.632812 C 72.148438 26.101562 68.285156 17.476562 62.042969 11.234375 Z M 62.042969 11.234375 " fill-opacity="1" fill-rule="nonzero"/></g><path fill="rgb(100%, 100%, 100%)" d="M 17.363281 16.703125 C 16.464844 16.703125 15.738281 17.429688 15.738281 18.324219 L 15.738281 44.8125 C 15.738281 45.707031 16.464844 46.433594 17.359375 46.433594 L 57.925781 46.433594 C 58.820312 46.433594 59.546875 45.707031 59.546875 44.8125 L 59.546875 18.324219 C 59.546875 17.433594 58.820312 16.707031 57.925781 16.707031 L 17.363281 16.707031 Z M 57.925781 47.128906 L 17.363281 47.128906 C 16.082031 47.128906 15.042969 46.089844 15.042969 44.8125 L 15.042969 18.324219 C 15.042969 17.046875 16.082031 16.007812 17.363281 16.007812 L 57.925781 16.007812 C 59.203125 16.007812 60.242188 17.046875 60.242188 18.324219 L 60.242188 44.8125 C 60.242188 46.089844 59.203125 47.128906 57.925781 47.128906 Z M 57.925781 47.128906 " fill-opacity="1" fill-rule="evenodd"/><path fill="rgb(100%, 100%, 100%)" d="M 18.222656 43.949219 L 57.066406 43.949219 L 57.066406 19.1875 L 18.222656 19.1875 Z M 57.414062 44.644531 L 17.875 44.644531 C 17.683594 44.644531 17.527344 44.492188 17.527344 44.296875 L 17.527344 18.839844 C 17.527344 18.648438 17.683594 18.492188 17.875 18.492188 L 57.414062 18.492188 C 57.605469 18.492188 57.761719 18.648438 57.761719 18.839844 L 57.761719 44.296875 C 57.761719 44.488281 57.605469 44.644531 57.414062 44.644531 Z M 57.414062 44.644531 " fill-opacity="1" fill-rule="evenodd"/><path fill="rgb(100%, 100%, 100%)" d="M 45.785156 55.253906 L 29.503906 55.253906 C 29.34375 55.253906 29.207031 55.148438 29.167969 54.996094 C 29.125 54.839844 29.195312 54.679688 29.332031 54.601562 C 33.691406 52.152344 33.160156 48.695312 32.875 46.835938 C 32.847656 46.644531 32.976562 46.46875 33.164062 46.4375 C 33.355469 46.410156 33.535156 46.539062 33.5625 46.730469 C 33.757812 48 33.882812 49.375 33.46875 50.8125 C 33.046875 52.28125 32.117188 53.535156 30.699219 54.558594 L 44.59375 54.558594 C 43.179688 53.535156 42.246094 52.28125 41.824219 50.8125 C 41.410156 49.375 41.535156 48 41.730469 46.730469 C 41.761719 46.539062 41.9375 46.410156 42.125 46.4375 C 42.316406 46.46875 42.445312 46.644531 42.417969 46.835938 C 42.132812 48.695312 41.601562 52.152344 45.957031 54.601562 C 46.097656 54.679688 46.164062 54.839844 46.125 54.996094 C 46.082031 55.148438 45.941406 55.253906 45.785156 55.253906 Z M 45.785156 55.253906 " fill-opacity="1" fill-rule="evenodd"/><path fill="rgb(100%, 100%, 100%)" d="M 21.601562 27.246094 L 29.597656 27.246094 L 29.597656 24.839844 L 21.601562 24.839844 Z M 29.945312 27.941406 L 21.253906 27.941406 C 21.0625 27.941406 20.90625 27.789062 20.90625 27.597656 L 20.90625 24.492188 C 20.90625 24.300781 21.0625 24.144531 21.253906 24.144531 L 29.945312 24.144531 C 30.136719 24.144531 30.292969 24.300781 30.292969 24.492188 L 30.292969 27.597656 C 30.292969 27.789062 30.136719 27.941406 29.945312 27.941406 Z M 29.945312 27.941406 " fill-opacity="1" fill-rule="evenodd"/><path fill="rgb(100%, 100%, 100%)" d="M 33.644531 27.246094 L 41.640625 27.246094 L 41.640625 24.839844 L 33.644531 24.839844 Z M 41.992188 27.941406 L 33.296875 27.941406 C 33.105469 27.941406 32.949219 27.789062 32.949219 27.597656 L 32.949219 24.492188 C 32.949219 24.300781 33.105469 24.144531 33.296875 24.144531 L 41.992188 24.144531 C 42.183594 24.144531 42.335938 24.300781 42.335938 24.492188 L 42.335938 27.597656 C 42.335938 27.789062 42.183594 27.941406 41.992188 27.941406 Z M 41.992188 27.941406 " fill-opacity="1" fill-rule="evenodd"/><path fill="rgb(100%, 100%, 100%)" d="M 45.691406 27.246094 L 53.6875 27.246094 L 53.6875 24.839844 L 45.691406 24.839844 Z M 54.035156 27.941406 L 45.34375 27.941406 C 45.152344 27.941406 44.996094 27.789062 44.996094 27.597656 L 44.996094 24.492188 C 44.996094 24.300781 45.152344 24.144531 45.34375 24.144531 L 54.035156 24.144531 C 54.226562 24.144531 54.382812 24.300781 54.382812 24.492188 L 54.382812 27.597656 C 54.382812 27.789062 54.226562 27.941406 54.035156 27.941406 Z M 54.035156 27.941406 " fill-opacity="1" fill-rule="evenodd"/><path fill="rgb(100%, 100%, 100%)" d="M 22.8125 35.101562 L 27.703125 35.101562 L 27.703125 30.957031 L 22.8125 30.957031 Z M 28.050781 35.796875 L 22.460938 35.796875 C 22.269531 35.796875 22.113281 35.644531 22.113281 35.453125 L 22.113281 30.609375 C 22.113281 30.417969 22.269531 30.261719 22.460938 30.261719 L 28.050781 30.261719 C 28.242188 30.261719 28.398438 30.417969 28.398438 30.609375 L 28.398438 35.453125 C 28.398438 35.644531 28.242188 35.796875 28.050781 35.796875 Z M 28.050781 35.796875 " fill-opacity="1" fill-rule="evenodd"/><path fill="rgb(100%, 100%, 100%)" d="M 31.066406 35.101562 L 35.960938 35.101562 L 35.960938 30.957031 L 31.066406 30.957031 Z M 36.308594 35.796875 L 30.722656 35.796875 C 30.53125 35.796875 30.375 35.644531 30.375 35.453125 L 30.375 30.609375 C 30.375 30.417969 30.53125 30.261719 30.722656 30.261719 L 36.308594 30.261719 C 36.5 30.261719 36.65625 30.417969 36.65625 30.609375 L 36.65625 35.453125 C 36.65625 35.644531 36.5 35.796875 36.308594 35.796875 Z M 36.308594 35.796875 " fill-opacity="1" fill-rule="evenodd"/><path fill="rgb(100%, 100%, 100%)" d="M 39.324219 35.101562 L 44.21875 35.101562 L 44.21875 30.957031 L 39.324219 30.957031 Z M 44.566406 35.796875 L 38.976562 35.796875 C 38.785156 35.796875 38.632812 35.644531 38.632812 35.453125 L 38.632812 30.609375 C 38.632812 30.417969 38.785156 30.261719 38.976562 30.261719 L 44.566406 30.261719 C 44.757812 30.261719 44.914062 30.417969 44.914062 30.609375 L 44.914062 35.453125 C 44.914062 35.644531 44.757812 35.796875 44.566406 35.796875 Z M 44.566406 35.796875 " fill-opacity="1" fill-rule="evenodd"/><path fill="rgb(100%, 100%, 100%)" d="M 47.585938 35.101562 L 52.476562 35.101562 L 52.476562 30.957031 L 47.585938 30.957031 Z M 52.824219 35.796875 L 47.238281 35.796875 C 47.046875 35.796875 46.890625 35.644531 46.890625 35.453125 L 46.890625 30.609375 C 46.890625 30.417969 47.046875 30.261719 47.238281 30.261719 L 52.824219 30.261719 C 53.015625 30.261719 53.171875 30.417969 53.171875 30.609375 L 53.171875 35.453125 C 53.171875 35.644531 53.015625 35.796875 52.824219 35.796875 Z M 52.824219 35.796875 " fill-opacity="1" fill-rule="evenodd"/><path fill="rgb(100%, 100%, 100%)" d="M 30.136719 38.996094 L 22.8125 38.996094 C 22.621094 38.996094 22.464844 38.839844 22.464844 38.648438 C 22.464844 38.457031 22.621094 38.300781 22.8125 38.300781 L 30.136719 38.300781 C 30.328125 38.300781 30.484375 38.457031 30.484375 38.648438 C 30.484375 38.839844 30.328125 38.996094 30.136719 38.996094 Z M 30.136719 38.996094 " fill-opacity="1" fill-rule="evenodd"/><path fill="rgb(100%, 100%, 100%)" d="M 41.308594 38.996094 L 33.980469 38.996094 C 33.789062 38.996094 33.632812 38.839844 33.632812 38.648438 C 33.632812 38.457031 33.789062 38.300781 33.980469 38.300781 L 41.308594 38.300781 C 41.5 38.300781 41.65625 38.457031 41.65625 38.648438 C 41.65625 38.839844 41.5 38.996094 41.308594 38.996094 Z M 41.308594 38.996094 " fill-opacity="1" fill-rule="evenodd"/><path fill="rgb(100%, 100%, 100%)" d="M 52.476562 38.996094 L 45.152344 38.996094 C 44.960938 38.996094 44.804688 38.839844 44.804688 38.648438 C 44.804688 38.457031 44.960938 38.300781 45.152344 38.300781 L 52.476562 38.300781 C 52.667969 38.300781 52.824219 38.457031 52.824219 38.648438 C 52.824219 38.839844 52.667969 38.996094 52.476562 38.996094 Z M 52.476562 38.996094 " fill-opacity="1" fill-rule="evenodd"/></svg>